G04*
G04 #@! TF.GenerationSoftware,Altium Limited,Altium Designer,19.0.10 (269)*
G04*
G04 Layer_Physical_Order=1*
G04 Layer_Color=255*
%FSLAX25Y25*%
%MOIN*%
G70*
G01*
G75*
%ADD29C,0.05906*%
%ADD30C,0.06000*%
%ADD31O,0.05906X0.11811*%
%ADD32O,0.11811X0.05906*%
%ADD33O,0.15748X0.08661*%
%ADD34O,0.04724X0.07874*%
%ADD35O,0.11024X0.05906*%
%ADD36O,0.07874X0.04724*%
%ADD37O,0.25591X0.07874*%
%ADD38O,0.11811X0.05906*%
%ADD39C,0.08661*%
D29*
X481500Y96500D02*
X508500Y69500D01*
X420000Y96500D02*
X481500D01*
D30*
X597315Y354870D02*
D03*
Y19685D02*
D03*
X19685D02*
D03*
Y354685D02*
D03*
D31*
X248000Y261000D02*
D03*
X288000D02*
D03*
X341917Y48842D02*
D03*
X351917D02*
D03*
X361917D02*
D03*
X371917D02*
D03*
X381917D02*
D03*
X391917D02*
D03*
X401917D02*
D03*
X411917D02*
D03*
X421917D02*
D03*
X431917D02*
D03*
X441917D02*
D03*
X451917D02*
D03*
X461917D02*
D03*
X471917D02*
D03*
X481917D02*
D03*
X341917Y148843D02*
D03*
X351917D02*
D03*
X361917D02*
D03*
X371917D02*
D03*
X381917D02*
D03*
X391917D02*
D03*
X401917D02*
D03*
X411917D02*
D03*
X421917D02*
D03*
X431917D02*
D03*
X441917D02*
D03*
X451917D02*
D03*
X461917D02*
D03*
X471917D02*
D03*
X481917D02*
D03*
X511917Y48842D02*
D03*
X501917D02*
D03*
X491917D02*
D03*
X511917Y148843D02*
D03*
X501917D02*
D03*
X491917D02*
D03*
X301500Y228933D02*
D03*
X291500D02*
D03*
X256000Y336966D02*
D03*
X246000D02*
D03*
D32*
X248100Y282900D02*
D03*
X248000Y292900D02*
D03*
X246000Y320500D02*
D03*
Y310500D02*
D03*
X266000Y229000D02*
D03*
Y219000D02*
D03*
X293000Y167500D02*
D03*
Y207500D02*
D03*
X270900Y169600D02*
D03*
X271000Y159600D02*
D03*
X153600Y116900D02*
D03*
X153500Y126900D02*
D03*
X70260Y230933D02*
D03*
X227740D02*
D03*
X70260Y160067D02*
D03*
X227740D02*
D03*
X106000Y62000D02*
D03*
Y102000D02*
D03*
X227240Y266067D02*
D03*
X69760D02*
D03*
X227240Y336933D02*
D03*
X69760D02*
D03*
X352500Y272000D02*
D03*
Y282000D02*
D03*
Y292000D02*
D03*
Y302000D02*
D03*
Y312000D02*
D03*
Y322000D02*
D03*
X438996Y311528D02*
D03*
Y301528D02*
D03*
Y291528D02*
D03*
Y281528D02*
D03*
Y272000D02*
D03*
Y262000D02*
D03*
X493500Y246000D02*
D03*
Y256000D02*
D03*
Y266000D02*
D03*
Y276000D02*
D03*
Y286000D02*
D03*
Y296000D02*
D03*
Y306000D02*
D03*
Y316000D02*
D03*
X583500D02*
D03*
Y306000D02*
D03*
Y296000D02*
D03*
Y286000D02*
D03*
Y276000D02*
D03*
Y266000D02*
D03*
Y256000D02*
D03*
Y246000D02*
D03*
D33*
X29500Y139500D02*
D03*
Y159500D02*
D03*
D34*
X351917Y180500D02*
D03*
X341917D02*
D03*
D35*
X296000Y292657D02*
D03*
Y312343D02*
D03*
X146500Y51657D02*
D03*
Y71342D02*
D03*
D36*
X331500Y302000D02*
D03*
Y312000D02*
D03*
X469000Y306000D02*
D03*
Y316000D02*
D03*
X186500Y51500D02*
D03*
Y61500D02*
D03*
D37*
X70500Y81685D02*
D03*
Y62000D02*
D03*
D38*
X224500Y101500D02*
D03*
Y91500D02*
D03*
Y81500D02*
D03*
Y71500D02*
D03*
Y61500D02*
D03*
Y51500D02*
D03*
D39*
X420000Y96500D02*
D03*
X508500Y69500D02*
D03*
M02*
