G04*
G04 #@! TF.GenerationSoftware,Altium Limited,Altium Designer,19.0.10 (269)*
G04*
G04 Layer_Physical_Order=2*
G04 Layer_Color=16711680*
%FSLAX25Y25*%
%MOIN*%
G70*
G01*
G75*
%ADD29C,0.05906*%
%ADD30C,0.06000*%
%ADD31O,0.05906X0.11811*%
%ADD32O,0.11811X0.05906*%
%ADD33O,0.15748X0.08661*%
%ADD34O,0.04724X0.07874*%
%ADD35O,0.11024X0.05906*%
%ADD36O,0.07874X0.04724*%
%ADD37O,0.25591X0.07874*%
%ADD38O,0.11811X0.05906*%
%ADD39C,0.08661*%
%ADD40C,0.11811*%
%ADD41C,0.09843*%
%ADD42C,0.03937*%
%ADD43C,0.07874*%
%ADD44C,0.08661*%
%ADD45C,0.05000*%
G36*
X617000Y316000D02*
Y312842D01*
Y63000D01*
X554000Y0D01*
X64499Y-0D01*
X64000Y0D01*
X63998Y2D01*
X500Y63500D01*
X0D01*
Y301500D01*
X73000Y374500D01*
X558500D01*
X617000Y316000D01*
D02*
G37*
%LPC*%
G36*
X256000Y343906D02*
X254968Y343770D01*
X254007Y343372D01*
X253181Y342738D01*
X252547Y341913D01*
X252149Y340951D01*
X252013Y339919D01*
Y339684D01*
X251688Y339260D01*
X251524Y338866D01*
X250983D01*
X250656Y339655D01*
X249890Y340653D01*
X249851Y340951D01*
X249453Y341913D01*
X248819Y342738D01*
X247993Y343372D01*
X247032Y343770D01*
X246000Y343906D01*
X244968Y343770D01*
X244007Y343372D01*
X243181Y342738D01*
X242560Y341929D01*
X229165D01*
X228648Y342143D01*
X227257Y342326D01*
X225865Y342143D01*
X224569Y341606D01*
X223547Y340823D01*
X223255Y340784D01*
X222294Y340386D01*
X221468Y339752D01*
X220835Y338927D01*
X220436Y337965D01*
X220301Y336933D01*
X220436Y335901D01*
X220835Y334940D01*
X221468Y334114D01*
X222294Y333480D01*
X223255Y333082D01*
X223553Y333043D01*
X224552Y332277D01*
X225849Y331740D01*
X227240Y331556D01*
X228632Y331740D01*
X229188Y331970D01*
X241020D01*
Y323927D01*
X240228Y323319D01*
X239595Y322493D01*
X239196Y321532D01*
X239060Y320500D01*
X239196Y319468D01*
X239595Y318507D01*
X240228Y317681D01*
X241054Y317047D01*
X242015Y316649D01*
X243047Y316513D01*
X243086D01*
X243510Y316188D01*
X244711Y315690D01*
X246000Y315520D01*
X247289Y315690D01*
X248490Y316188D01*
X248914Y316513D01*
X248953D01*
X249985Y316649D01*
X250946Y317047D01*
X251772Y317681D01*
X252406Y318507D01*
X252804Y319468D01*
X252940Y320500D01*
X252804Y321532D01*
X252406Y322493D01*
X251772Y323319D01*
X250980Y323927D01*
Y334682D01*
X251480Y334782D01*
X251688Y334280D01*
X252038Y333823D01*
X252149Y332982D01*
X252547Y332020D01*
X253181Y331195D01*
X254007Y330561D01*
X254968Y330163D01*
X255655Y330072D01*
X275557Y310171D01*
X275771Y309654D01*
X276625Y308541D01*
X277739Y307686D01*
X279036Y307149D01*
X280427Y306966D01*
X296000D01*
X297392Y307149D01*
X297908Y307363D01*
X328786D01*
X328812Y307344D01*
X330108Y306806D01*
X331500Y306623D01*
X332892Y306806D01*
X333408Y307020D01*
X352500D01*
X353789Y307190D01*
X354990Y307687D01*
X355414Y308013D01*
X355453D01*
X356485Y308149D01*
X357446Y308547D01*
X358272Y309181D01*
X358906Y310007D01*
X359304Y310968D01*
X359440Y312000D01*
X359304Y313032D01*
X358906Y313993D01*
X358272Y314819D01*
X357446Y315453D01*
X356485Y315851D01*
X355453Y315987D01*
X355414D01*
X354990Y316313D01*
X353789Y316810D01*
X352500Y316980D01*
X333871D01*
X333846Y316999D01*
X332549Y317536D01*
X331157Y317719D01*
X329766Y317536D01*
X329250Y317322D01*
X297908D01*
X297392Y317536D01*
X296000Y317719D01*
X282093D01*
X259987Y339825D01*
Y339919D01*
X259851Y340951D01*
X259453Y341913D01*
X258819Y342738D01*
X257993Y343372D01*
X257032Y343770D01*
X256000Y343906D01*
D02*
G37*
G36*
X591500Y335487D02*
X591500Y335487D01*
X532000D01*
X532000Y335487D01*
X530968Y335351D01*
X530007Y334953D01*
X529181Y334319D01*
X514849Y319987D01*
X469000D01*
X467968Y319851D01*
X467007Y319453D01*
X466823Y319312D01*
X466547Y319276D01*
X465730Y318937D01*
X465027Y318398D01*
X464488Y317696D01*
X464150Y316878D01*
X464034Y316000D01*
X464150Y315122D01*
X464488Y314304D01*
X465027Y313602D01*
X465730Y313063D01*
X466547Y312724D01*
X466823Y312688D01*
X467007Y312547D01*
X467968Y312149D01*
X469000Y312013D01*
X516500D01*
X516500Y312013D01*
X517532Y312149D01*
X518493Y312547D01*
X519319Y313181D01*
X533651Y327513D01*
X589849D01*
X601513Y315849D01*
X601513Y71651D01*
X540849Y10987D01*
X355069D01*
X301736Y64319D01*
X300911Y64953D01*
X299949Y65351D01*
X298917Y65487D01*
X298917Y65487D01*
X187758D01*
X179083Y74162D01*
X178257Y74795D01*
X177296Y75194D01*
X176264Y75329D01*
X176264Y75329D01*
X150487D01*
Y82349D01*
X205151Y137013D01*
X334075D01*
X334075Y137013D01*
X335107Y137149D01*
X336068Y137547D01*
X336894Y138181D01*
X340791Y142078D01*
X340885Y142039D01*
X341917Y141903D01*
X342949Y142039D01*
X343911Y142437D01*
X344737Y143071D01*
X345370Y143896D01*
X345768Y144858D01*
X345904Y145890D01*
Y148842D01*
X345904Y148843D01*
X345904Y148843D01*
Y151795D01*
Y180500D01*
X345768Y181532D01*
X345370Y182493D01*
X345229Y182677D01*
X345193Y182952D01*
X344854Y183770D01*
X344315Y184473D01*
X343613Y185012D01*
X342795Y185351D01*
X341917Y185466D01*
X341040Y185351D01*
X340222Y185012D01*
X339538Y184487D01*
X336151D01*
X305487Y215151D01*
Y228933D01*
Y231886D01*
X305351Y232918D01*
X304953Y233879D01*
X304319Y234705D01*
X303493Y235338D01*
X302532Y235737D01*
X301500Y235873D01*
X300468Y235737D01*
X299507Y235338D01*
X298681Y234705D01*
X298047Y233879D01*
X297649Y232918D01*
X297513Y231886D01*
Y228933D01*
Y225980D01*
Y213500D01*
X297513Y213500D01*
X297649Y212468D01*
X298047Y211507D01*
X298109Y211427D01*
X297794Y211016D01*
X296985Y211351D01*
X295953Y211487D01*
X291699D01*
X281366Y221819D01*
X280541Y222453D01*
X279579Y222851D01*
X278547Y222987D01*
X278547Y222987D01*
X263047D01*
X262015Y222851D01*
X261054Y222453D01*
X260228Y221819D01*
X259594Y220993D01*
X259196Y220032D01*
X259060Y219000D01*
X259196Y217968D01*
X259594Y217007D01*
X260228Y216181D01*
X261054Y215547D01*
X262015Y215149D01*
X263047Y215013D01*
X276896D01*
X287228Y204681D01*
X287228Y204681D01*
X288054Y204047D01*
X289015Y203649D01*
X290047Y203513D01*
X290047Y203513D01*
X295953D01*
X296985Y203649D01*
X297946Y204047D01*
X298772Y204681D01*
X299406Y205507D01*
X299804Y206468D01*
X299940Y207500D01*
X299804Y208532D01*
X299578Y209076D01*
X300002Y209360D01*
X331681Y177681D01*
X331681Y177681D01*
X332507Y177047D01*
X333468Y176649D01*
X334500Y176513D01*
X334500Y176513D01*
X337930D01*
Y151795D01*
Y150494D01*
X332423Y144987D01*
X203500D01*
X202468Y144851D01*
X201507Y144453D01*
X200681Y143819D01*
X200681Y143819D01*
X143681Y86819D01*
X143047Y85993D01*
X142649Y85032D01*
X142513Y84000D01*
X142513Y84000D01*
Y75029D01*
X141947Y74795D01*
X141122Y74162D01*
X140488Y73336D01*
X140090Y72374D01*
X139954Y71342D01*
X140090Y70311D01*
X140488Y69349D01*
X141122Y68523D01*
X141947Y67890D01*
X142909Y67492D01*
X143941Y67356D01*
X174612D01*
X181864Y60104D01*
X181988Y59804D01*
X182527Y59102D01*
X183230Y58563D01*
X183688Y58373D01*
X184113Y58047D01*
X185074Y57649D01*
X186106Y57513D01*
X186106Y57513D01*
X297266D01*
X350598Y4181D01*
X351424Y3547D01*
X352385Y3149D01*
X353417Y3013D01*
X353417Y3013D01*
X542500D01*
X542500Y3013D01*
X543532Y3149D01*
X544493Y3547D01*
X545319Y4181D01*
X608319Y67181D01*
X608319Y67181D01*
X608953Y68007D01*
X609351Y68968D01*
X609487Y70000D01*
X609487Y70000D01*
X609487Y317500D01*
X609487Y317500D01*
X609351Y318532D01*
X608953Y319493D01*
X608319Y320319D01*
X594319Y334319D01*
X593493Y334953D01*
X592532Y335351D01*
X592412Y335367D01*
X591500Y335487D01*
D02*
G37*
G36*
X355453Y325987D02*
X349547D01*
X348515Y325851D01*
X347554Y325453D01*
X346728Y324819D01*
X346094Y323993D01*
X345696Y323032D01*
X345560Y322000D01*
X345696Y320968D01*
X346094Y320007D01*
X346728Y319181D01*
X347554Y318547D01*
X348515Y318149D01*
X349547Y318013D01*
X355453D01*
X356485Y318149D01*
X357446Y318547D01*
X358272Y319181D01*
X358906Y320007D01*
X359304Y320968D01*
X359440Y322000D01*
X359304Y323032D01*
X358906Y323993D01*
X358272Y324819D01*
X357446Y325453D01*
X356485Y325851D01*
X355453Y325987D01*
D02*
G37*
G36*
X586453Y319987D02*
X580547D01*
X579515Y319851D01*
X578554Y319453D01*
X577728Y318819D01*
X577095Y317993D01*
X576696Y317032D01*
X576560Y316000D01*
X576696Y314968D01*
X577095Y314007D01*
X577728Y313181D01*
X578554Y312547D01*
X579515Y312149D01*
X580547Y312013D01*
X586453D01*
X587485Y312149D01*
X588446Y312547D01*
X589272Y313181D01*
X589906Y314007D01*
X590304Y314968D01*
X590440Y316000D01*
X590304Y317032D01*
X589906Y317993D01*
X589272Y318819D01*
X588446Y319453D01*
X587485Y319851D01*
X586453Y319987D01*
D02*
G37*
G36*
X441949Y315514D02*
X436043D01*
X435011Y315379D01*
X434050Y314980D01*
X433224Y314347D01*
X432591Y313521D01*
X432192Y312559D01*
X432056Y311528D01*
X432192Y310496D01*
X432591Y309534D01*
X433224Y308708D01*
X434050Y308075D01*
X435011Y307677D01*
X436043Y307541D01*
X441949D01*
X442981Y307677D01*
X443942Y308075D01*
X444768Y308708D01*
X445401Y309534D01*
X445800Y310496D01*
X445936Y311528D01*
X445800Y312559D01*
X445401Y313521D01*
X444768Y314347D01*
X443942Y314980D01*
X442981Y315379D01*
X441949Y315514D01*
D02*
G37*
G36*
X496453Y309987D02*
X494000D01*
Y306500D01*
X500374D01*
X500304Y307032D01*
X499905Y307993D01*
X499272Y308819D01*
X498446Y309453D01*
X497485Y309851D01*
X496453Y309987D01*
D02*
G37*
G36*
X470575Y309391D02*
X469500D01*
Y306500D01*
X473900D01*
X473850Y306878D01*
X473512Y307696D01*
X472973Y308398D01*
X472270Y308937D01*
X471453Y309276D01*
X470575Y309391D01*
D02*
G37*
G36*
X468500D02*
X467425D01*
X466547Y309276D01*
X465730Y308937D01*
X465027Y308398D01*
X464488Y307696D01*
X464150Y306878D01*
X464100Y306500D01*
X468500D01*
Y309391D01*
D02*
G37*
G36*
X493000Y309987D02*
X490547D01*
X489515Y309851D01*
X488554Y309453D01*
X487728Y308819D01*
X487094Y307993D01*
X486696Y307032D01*
X486626Y306500D01*
X493000D01*
Y309987D01*
D02*
G37*
G36*
X473900Y305500D02*
X469500D01*
Y302609D01*
X470575D01*
X471453Y302724D01*
X472270Y303063D01*
X472973Y303602D01*
X473512Y304304D01*
X473850Y305122D01*
X473900Y305500D01*
D02*
G37*
G36*
X468500D02*
X464100D01*
X464150Y305122D01*
X464488Y304304D01*
X465027Y303602D01*
X465730Y303063D01*
X466547Y302724D01*
X467425Y302609D01*
X468500D01*
Y305500D01*
D02*
G37*
G36*
X333075Y305391D02*
X332000D01*
Y302500D01*
X336400D01*
X336350Y302878D01*
X336012Y303696D01*
X335473Y304398D01*
X334770Y304937D01*
X333952Y305276D01*
X333075Y305391D01*
D02*
G37*
G36*
X331000D02*
X329925D01*
X329047Y305276D01*
X328230Y304937D01*
X327527Y304398D01*
X326988Y303696D01*
X326649Y302878D01*
X326600Y302500D01*
X331000D01*
Y305391D01*
D02*
G37*
G36*
X586453Y309987D02*
X580547D01*
X579515Y309851D01*
X578554Y309453D01*
X577728Y308819D01*
X577095Y307993D01*
X576696Y307032D01*
X576560Y306000D01*
X576696Y304968D01*
X577095Y304007D01*
X577728Y303181D01*
X578554Y302547D01*
X579515Y302149D01*
X580547Y302013D01*
X586453D01*
X587485Y302149D01*
X588446Y302547D01*
X589272Y303181D01*
X589906Y304007D01*
X590304Y304968D01*
X590440Y306000D01*
X590304Y307032D01*
X589906Y307993D01*
X589272Y308819D01*
X588446Y309453D01*
X587485Y309851D01*
X586453Y309987D01*
D02*
G37*
G36*
X500374Y305500D02*
X494000D01*
Y302013D01*
X496453D01*
X497485Y302149D01*
X498446Y302547D01*
X499272Y303181D01*
X499905Y304007D01*
X500304Y304968D01*
X500374Y305500D01*
D02*
G37*
G36*
X493000D02*
X486626D01*
X486696Y304968D01*
X487094Y304007D01*
X487728Y303181D01*
X488554Y302547D01*
X489515Y302149D01*
X490547Y302013D01*
X493000D01*
Y305500D01*
D02*
G37*
G36*
X336400Y301500D02*
X332000D01*
Y298609D01*
X333075D01*
X333952Y298724D01*
X334770Y299063D01*
X335473Y299602D01*
X336012Y300304D01*
X336350Y301122D01*
X336400Y301500D01*
D02*
G37*
G36*
X331000D02*
X326600D01*
X326649Y301122D01*
X326988Y300304D01*
X327527Y299602D01*
X328230Y299063D01*
X329047Y298724D01*
X329925Y298609D01*
X331000D01*
Y301500D01*
D02*
G37*
G36*
X355453Y305987D02*
X349547D01*
X348515Y305851D01*
X347554Y305453D01*
X346728Y304819D01*
X346094Y303993D01*
X345696Y303032D01*
X345560Y302000D01*
X345696Y300968D01*
X346094Y300007D01*
X346728Y299181D01*
X347554Y298547D01*
X348515Y298149D01*
X349547Y298013D01*
X355453D01*
X356485Y298149D01*
X357446Y298547D01*
X358272Y299181D01*
X358906Y300007D01*
X359304Y300968D01*
X359440Y302000D01*
X359304Y303032D01*
X358906Y303993D01*
X358272Y304819D01*
X357446Y305453D01*
X356485Y305851D01*
X355453Y305987D01*
D02*
G37*
G36*
X441949Y305514D02*
X436043D01*
X435011Y305379D01*
X434050Y304980D01*
X433224Y304347D01*
X432591Y303521D01*
X432192Y302559D01*
X432056Y301528D01*
X432192Y300496D01*
X432591Y299534D01*
X433224Y298708D01*
X434050Y298075D01*
X435011Y297676D01*
X436043Y297541D01*
X441949D01*
X442981Y297676D01*
X443942Y298075D01*
X444768Y298708D01*
X445401Y299534D01*
X445800Y300496D01*
X445936Y301528D01*
X445800Y302559D01*
X445401Y303521D01*
X444768Y304347D01*
X443942Y304980D01*
X442981Y305379D01*
X441949Y305514D01*
D02*
G37*
G36*
X250953Y296887D02*
X248500D01*
Y293400D01*
X254874D01*
X254804Y293932D01*
X254405Y294893D01*
X253772Y295719D01*
X252946Y296353D01*
X251985Y296751D01*
X250953Y296887D01*
D02*
G37*
G36*
X247500D02*
X245047D01*
X244015Y296751D01*
X243054Y296353D01*
X242228Y295719D01*
X241595Y294893D01*
X241196Y293932D01*
X241126Y293400D01*
X247500D01*
Y296887D01*
D02*
G37*
G36*
X298559Y296644D02*
X296500D01*
Y293158D01*
X302480D01*
X302410Y293689D01*
X302012Y294651D01*
X301378Y295477D01*
X300553Y296110D01*
X299591Y296509D01*
X298559Y296644D01*
D02*
G37*
G36*
X295500D02*
X293441D01*
X292409Y296509D01*
X291447Y296110D01*
X290622Y295477D01*
X289988Y294651D01*
X289590Y293689D01*
X289520Y293158D01*
X295500D01*
Y296644D01*
D02*
G37*
G36*
X586453Y299987D02*
X580547D01*
X579515Y299851D01*
X578554Y299453D01*
X577728Y298819D01*
X577095Y297993D01*
X576696Y297032D01*
X576560Y296000D01*
X576696Y294968D01*
X577095Y294007D01*
X577728Y293181D01*
X578554Y292547D01*
X579515Y292149D01*
X580547Y292013D01*
X586453D01*
X587485Y292149D01*
X588446Y292547D01*
X589272Y293181D01*
X589906Y294007D01*
X590304Y294968D01*
X590440Y296000D01*
X590304Y297032D01*
X589906Y297993D01*
X589272Y298819D01*
X588446Y299453D01*
X587485Y299851D01*
X586453Y299987D01*
D02*
G37*
G36*
X496453D02*
X490547D01*
X489515Y299851D01*
X488554Y299453D01*
X487728Y298819D01*
X487094Y297993D01*
X486696Y297032D01*
X486560Y296000D01*
X486696Y294968D01*
X487094Y294007D01*
X487728Y293181D01*
X488554Y292547D01*
X489515Y292149D01*
X490547Y292013D01*
X496453D01*
X497485Y292149D01*
X498446Y292547D01*
X499272Y293181D01*
X499905Y294007D01*
X500304Y294968D01*
X500440Y296000D01*
X500304Y297032D01*
X499905Y297993D01*
X499272Y298819D01*
X498446Y299453D01*
X497485Y299851D01*
X496453Y299987D01*
D02*
G37*
G36*
X254874Y292400D02*
X248500D01*
Y288913D01*
X250953D01*
X251985Y289049D01*
X252946Y289447D01*
X253772Y290081D01*
X254405Y290907D01*
X254804Y291868D01*
X254874Y292400D01*
D02*
G37*
G36*
X247500D02*
X241126D01*
X241196Y291868D01*
X241595Y290907D01*
X242228Y290081D01*
X243054Y289447D01*
X244015Y289049D01*
X245047Y288913D01*
X247500D01*
Y292400D01*
D02*
G37*
G36*
X302480Y292158D02*
X296500D01*
Y288671D01*
X298559D01*
X299591Y288807D01*
X300553Y289205D01*
X301378Y289838D01*
X302012Y290664D01*
X302410Y291626D01*
X302480Y292158D01*
D02*
G37*
G36*
X295500D02*
X289520D01*
X289590Y291626D01*
X289988Y290664D01*
X290622Y289838D01*
X291447Y289205D01*
X292409Y288807D01*
X293441Y288671D01*
X295500D01*
Y292158D01*
D02*
G37*
G36*
X441949Y295514D02*
X436043D01*
X435011Y295379D01*
X434050Y294980D01*
X433224Y294347D01*
X432591Y293521D01*
X432192Y292559D01*
X432056Y291528D01*
X432192Y290496D01*
X432591Y289534D01*
X433224Y288708D01*
X434050Y288075D01*
X435011Y287677D01*
X436043Y287541D01*
X441949D01*
X442981Y287677D01*
X443942Y288075D01*
X444768Y288708D01*
X445401Y289534D01*
X445800Y290496D01*
X445936Y291528D01*
X445800Y292559D01*
X445401Y293521D01*
X444768Y294347D01*
X443942Y294980D01*
X442981Y295379D01*
X441949Y295514D01*
D02*
G37*
G36*
X586453Y289987D02*
X584000D01*
Y286500D01*
X590374D01*
X590304Y287032D01*
X589906Y287993D01*
X589272Y288819D01*
X588446Y289453D01*
X587485Y289851D01*
X586453Y289987D01*
D02*
G37*
G36*
X583000D02*
X580547D01*
X579515Y289851D01*
X578554Y289453D01*
X577728Y288819D01*
X577095Y287993D01*
X576696Y287032D01*
X576626Y286500D01*
X583000D01*
Y289987D01*
D02*
G37*
G36*
X590374Y285500D02*
X584000D01*
Y282013D01*
X586453D01*
X587485Y282149D01*
X588446Y282547D01*
X589272Y283181D01*
X589906Y284007D01*
X590304Y284968D01*
X590374Y285500D01*
D02*
G37*
G36*
X583000D02*
X576626D01*
X576696Y284968D01*
X577095Y284007D01*
X577728Y283181D01*
X578554Y282547D01*
X579515Y282149D01*
X580547Y282013D01*
X583000D01*
Y285500D01*
D02*
G37*
G36*
X496453Y289987D02*
X490547D01*
X489515Y289851D01*
X488554Y289453D01*
X487728Y288819D01*
X487094Y287993D01*
X486696Y287032D01*
X486560Y286000D01*
X486696Y284968D01*
X487094Y284007D01*
X487728Y283181D01*
X488554Y282547D01*
X489515Y282149D01*
X490547Y282013D01*
X496453D01*
X497485Y282149D01*
X498446Y282547D01*
X499272Y283181D01*
X499905Y284007D01*
X500304Y284968D01*
X500440Y286000D01*
X500304Y287032D01*
X499905Y287993D01*
X499272Y288819D01*
X498446Y289453D01*
X497485Y289851D01*
X496453Y289987D01*
D02*
G37*
G36*
X441949Y285514D02*
X436043D01*
X435011Y285379D01*
X434050Y284980D01*
X433224Y284347D01*
X432591Y283521D01*
X432192Y282559D01*
X432056Y281528D01*
X432192Y280496D01*
X432591Y279534D01*
X433224Y278708D01*
X434050Y278075D01*
X435011Y277677D01*
X436043Y277541D01*
X441949D01*
X442981Y277677D01*
X443942Y278075D01*
X444768Y278708D01*
X445401Y279534D01*
X445800Y280496D01*
X445936Y281528D01*
X445800Y282559D01*
X445401Y283521D01*
X444768Y284347D01*
X443942Y284980D01*
X442981Y285379D01*
X441949Y285514D01*
D02*
G37*
G36*
X355453Y275987D02*
X353000D01*
Y272500D01*
X359374D01*
X359304Y273032D01*
X358906Y273993D01*
X358272Y274819D01*
X357446Y275453D01*
X356485Y275851D01*
X355453Y275987D01*
D02*
G37*
G36*
X352000D02*
X349547D01*
X348515Y275851D01*
X347554Y275453D01*
X346728Y274819D01*
X346094Y273993D01*
X345696Y273032D01*
X345626Y272500D01*
X352000D01*
Y275987D01*
D02*
G37*
G36*
X586453Y279987D02*
X580547D01*
X579515Y279851D01*
X578554Y279453D01*
X577728Y278819D01*
X577095Y277993D01*
X576696Y277032D01*
X576560Y276000D01*
X576696Y274968D01*
X577095Y274007D01*
X577728Y273181D01*
X578554Y272547D01*
X579515Y272149D01*
X580547Y272013D01*
X586453D01*
X587485Y272149D01*
X588446Y272547D01*
X589272Y273181D01*
X589906Y274007D01*
X590304Y274968D01*
X590440Y276000D01*
X590304Y277032D01*
X589906Y277993D01*
X589272Y278819D01*
X588446Y279453D01*
X587485Y279851D01*
X586453Y279987D01*
D02*
G37*
G36*
X496453D02*
X490547D01*
X489515Y279851D01*
X488554Y279453D01*
X487728Y278819D01*
X487094Y277993D01*
X486696Y277032D01*
X486560Y276000D01*
X486696Y274968D01*
X487094Y274007D01*
X487728Y273181D01*
X488554Y272547D01*
X489515Y272149D01*
X490547Y272013D01*
X496453D01*
X497485Y272149D01*
X498446Y272547D01*
X499272Y273181D01*
X499905Y274007D01*
X500304Y274968D01*
X500440Y276000D01*
X500304Y277032D01*
X499905Y277993D01*
X499272Y278819D01*
X498446Y279453D01*
X497485Y279851D01*
X496453Y279987D01*
D02*
G37*
G36*
X441949Y275987D02*
X436043D01*
X435011Y275851D01*
X434050Y275453D01*
X433224Y274819D01*
X432591Y273993D01*
X432192Y273032D01*
X432056Y272000D01*
X432192Y270968D01*
X432591Y270007D01*
X433224Y269181D01*
X434050Y268547D01*
X435011Y268149D01*
X436043Y268013D01*
X441949D01*
X442981Y268149D01*
X443942Y268547D01*
X444768Y269181D01*
X445401Y270007D01*
X445800Y270968D01*
X445936Y272000D01*
X445800Y273032D01*
X445401Y273993D01*
X444768Y274819D01*
X443942Y275453D01*
X442981Y275851D01*
X441949Y275987D01*
D02*
G37*
G36*
X359374Y271500D02*
X353000D01*
Y268013D01*
X355453D01*
X356485Y268149D01*
X357446Y268547D01*
X358272Y269181D01*
X358906Y270007D01*
X359304Y270968D01*
X359374Y271500D01*
D02*
G37*
G36*
X352000D02*
X345626D01*
X345696Y270968D01*
X346094Y270007D01*
X346728Y269181D01*
X347554Y268547D01*
X348515Y268149D01*
X349547Y268013D01*
X352000D01*
Y271500D01*
D02*
G37*
G36*
X230193Y270054D02*
X227740D01*
Y266567D01*
X234114D01*
X234044Y267099D01*
X233646Y268060D01*
X233012Y268886D01*
X232186Y269520D01*
X231225Y269918D01*
X230193Y270054D01*
D02*
G37*
G36*
X226740D02*
X224287D01*
X223255Y269918D01*
X222294Y269520D01*
X221468Y268886D01*
X220835Y268060D01*
X220436Y267099D01*
X220366Y266567D01*
X226740D01*
Y270054D01*
D02*
G37*
G36*
X72713D02*
X70260D01*
Y266567D01*
X76634D01*
X76564Y267099D01*
X76165Y268060D01*
X75532Y268886D01*
X74706Y269520D01*
X73744Y269918D01*
X72713Y270054D01*
D02*
G37*
G36*
X69260D02*
X66807D01*
X65775Y269918D01*
X64814Y269520D01*
X63988Y268886D01*
X63354Y268060D01*
X62956Y267099D01*
X62886Y266567D01*
X69260D01*
Y270054D01*
D02*
G37*
G36*
X234114Y265567D02*
X227740D01*
Y262080D01*
X230193D01*
X231225Y262216D01*
X232186Y262614D01*
X233012Y263248D01*
X233646Y264073D01*
X234044Y265035D01*
X234114Y265567D01*
D02*
G37*
G36*
X226740D02*
X220366D01*
X220436Y265035D01*
X220835Y264073D01*
X221468Y263248D01*
X222294Y262614D01*
X223255Y262216D01*
X224287Y262080D01*
X226740D01*
Y265567D01*
D02*
G37*
G36*
X76634D02*
X70260D01*
Y262080D01*
X72713D01*
X73744Y262216D01*
X74706Y262614D01*
X75532Y263248D01*
X76165Y264073D01*
X76564Y265035D01*
X76634Y265567D01*
D02*
G37*
G36*
X69260D02*
X62886D01*
X62956Y265035D01*
X63354Y264073D01*
X63988Y263248D01*
X64814Y262614D01*
X65775Y262216D01*
X66807Y262080D01*
X69260D01*
Y265567D01*
D02*
G37*
G36*
X496453Y269987D02*
X490547D01*
X489515Y269851D01*
X488554Y269453D01*
X487728Y268819D01*
X487094Y267993D01*
X486696Y267032D01*
X486560Y266000D01*
X486696Y264968D01*
X487094Y264007D01*
X487728Y263181D01*
X488554Y262547D01*
X489515Y262149D01*
X490547Y262013D01*
X496453D01*
X497485Y262149D01*
X498446Y262547D01*
X499272Y263181D01*
X499905Y264007D01*
X500304Y264968D01*
X500440Y266000D01*
X500304Y267032D01*
X499905Y267993D01*
X499272Y268819D01*
X498446Y269453D01*
X497485Y269851D01*
X496453Y269987D01*
D02*
G37*
G36*
X394908Y295987D02*
X394908Y295987D01*
X349547D01*
X348515Y295851D01*
X347554Y295453D01*
X346728Y294819D01*
X346094Y293993D01*
X345696Y293032D01*
X345560Y292000D01*
X345696Y290968D01*
X346094Y290007D01*
X346728Y289181D01*
X347554Y288547D01*
X348515Y288149D01*
X349547Y288013D01*
X393256D01*
X432089Y249181D01*
X432089Y249181D01*
X432914Y248547D01*
X433876Y248149D01*
X434908Y248013D01*
X469114D01*
X548419Y168709D01*
Y134557D01*
X489098Y75236D01*
X488465Y74411D01*
X488066Y73449D01*
X487930Y72417D01*
X487930Y72417D01*
Y51795D01*
Y48842D01*
Y45890D01*
X488066Y44858D01*
X488465Y43896D01*
X489098Y43071D01*
X489924Y42437D01*
X490885Y42039D01*
X491917Y41903D01*
X492949Y42039D01*
X493911Y42437D01*
X494736Y43071D01*
X495370Y43896D01*
X495768Y44858D01*
X495904Y45890D01*
Y51795D01*
Y70766D01*
X555225Y130086D01*
X555225Y130086D01*
X555858Y130912D01*
X556256Y131874D01*
X556392Y132905D01*
X556392Y132906D01*
Y170360D01*
X556392Y170360D01*
X556256Y171392D01*
X555858Y172354D01*
X555225Y173179D01*
X473585Y254819D01*
X472759Y255453D01*
X471798Y255851D01*
X470766Y255987D01*
X470766Y255987D01*
X436559D01*
X434859Y257687D01*
X434915Y257856D01*
X435118Y258135D01*
X436043Y258013D01*
X441949D01*
X442981Y258149D01*
X443942Y258547D01*
X444768Y259181D01*
X445401Y260007D01*
X445800Y260968D01*
X445936Y262000D01*
X445800Y263032D01*
X445401Y263993D01*
X444768Y264819D01*
X443942Y265453D01*
X442981Y265851D01*
X441949Y265987D01*
X436043D01*
X435011Y265851D01*
X434050Y265453D01*
X433224Y264819D01*
X432591Y263993D01*
X432192Y263032D01*
X432056Y262000D01*
X432178Y261075D01*
X431900Y260872D01*
X431730Y260816D01*
X397727Y294819D01*
X396901Y295453D01*
X395940Y295851D01*
X395820Y295867D01*
X394908Y295987D01*
D02*
G37*
G36*
X257500Y314487D02*
X257500Y314487D01*
X243047D01*
X242015Y314351D01*
X241054Y313953D01*
X240228Y313319D01*
X239595Y312493D01*
X239196Y311532D01*
X239060Y310500D01*
X239196Y309468D01*
X239595Y308507D01*
X240228Y307681D01*
X241054Y307047D01*
X242015Y306649D01*
X243047Y306513D01*
X255849D01*
X284013Y278349D01*
Y263953D01*
Y261000D01*
Y258047D01*
X284149Y257015D01*
X284547Y256054D01*
X285181Y255228D01*
X286007Y254594D01*
X286968Y254196D01*
X288000Y254060D01*
X289032Y254196D01*
X289993Y254594D01*
X290819Y255228D01*
X291453Y256054D01*
X291851Y257015D01*
X291987Y258047D01*
Y263953D01*
Y280000D01*
X291851Y281032D01*
X291453Y281993D01*
X290819Y282819D01*
X290819Y282819D01*
X260319Y313319D01*
X259493Y313953D01*
X258532Y314351D01*
X258412Y314367D01*
X257500Y314487D01*
D02*
G37*
G36*
X251053Y286887D02*
X245147D01*
X244115Y286751D01*
X243154Y286353D01*
X242328Y285719D01*
X241694Y284893D01*
X241296Y283932D01*
X241160Y282900D01*
X241296Y281868D01*
X241694Y280907D01*
X242328Y280081D01*
X243154Y279447D01*
X244013Y279091D01*
Y263953D01*
Y261000D01*
Y258047D01*
X244149Y257015D01*
X244547Y256054D01*
X245181Y255228D01*
X246007Y254594D01*
X246968Y254196D01*
X248000Y254060D01*
X249032Y254196D01*
X249993Y254594D01*
X250819Y255228D01*
X251453Y256054D01*
X251851Y257015D01*
X251987Y258047D01*
Y263953D01*
Y279036D01*
X252085Y279049D01*
X253046Y279447D01*
X253872Y280081D01*
X254505Y280907D01*
X254904Y281868D01*
X255040Y282900D01*
X254904Y283932D01*
X254505Y284893D01*
X253872Y285719D01*
X253046Y286353D01*
X252085Y286751D01*
X251053Y286887D01*
D02*
G37*
G36*
X496453Y259987D02*
X490547D01*
X489515Y259851D01*
X488554Y259453D01*
X487728Y258819D01*
X487094Y257993D01*
X486696Y257032D01*
X486560Y256000D01*
X486696Y254968D01*
X487094Y254007D01*
X487728Y253181D01*
X488554Y252547D01*
X489515Y252149D01*
X490547Y252013D01*
X496453D01*
X497485Y252149D01*
X498446Y252547D01*
X499272Y253181D01*
X499905Y254007D01*
X500304Y254968D01*
X500440Y256000D01*
X500304Y257032D01*
X499905Y257993D01*
X499272Y258819D01*
X498446Y259453D01*
X497485Y259851D01*
X496453Y259987D01*
D02*
G37*
G36*
X586453Y249987D02*
X584000D01*
Y246500D01*
X590374D01*
X590304Y247032D01*
X589906Y247993D01*
X589272Y248819D01*
X588446Y249453D01*
X587485Y249851D01*
X586453Y249987D01*
D02*
G37*
G36*
X583000D02*
X580547D01*
X579515Y249851D01*
X578554Y249453D01*
X577728Y248819D01*
X577095Y247993D01*
X576696Y247032D01*
X576626Y246500D01*
X583000D01*
Y249987D01*
D02*
G37*
G36*
X590374Y245500D02*
X584000D01*
Y242013D01*
X586453D01*
X587485Y242149D01*
X588446Y242547D01*
X589272Y243181D01*
X589906Y244007D01*
X590304Y244968D01*
X590374Y245500D01*
D02*
G37*
G36*
X583000D02*
X576626D01*
X576696Y244968D01*
X577095Y244007D01*
X577728Y243181D01*
X578554Y242547D01*
X579515Y242149D01*
X580547Y242013D01*
X583000D01*
Y245500D01*
D02*
G37*
G36*
X496453Y249987D02*
X490547D01*
X489515Y249851D01*
X488554Y249453D01*
X487728Y248819D01*
X487094Y247993D01*
X486696Y247032D01*
X486560Y246000D01*
X486696Y244968D01*
X487094Y244007D01*
X487728Y243181D01*
X488554Y242547D01*
X489515Y242149D01*
X490547Y242013D01*
X496453D01*
X497485Y242149D01*
X498446Y242547D01*
X499272Y243181D01*
X499905Y244007D01*
X500304Y244968D01*
X500440Y246000D01*
X500304Y247032D01*
X499905Y247993D01*
X499272Y248819D01*
X498446Y249453D01*
X497485Y249851D01*
X496453Y249987D01*
D02*
G37*
G36*
X227774Y236343D02*
X226382Y236160D01*
X225085Y235623D01*
X224041Y234822D01*
X223756Y234784D01*
X222794Y234386D01*
X221968Y233752D01*
X221335Y232927D01*
X220936Y231965D01*
X220800Y230933D01*
X220936Y229901D01*
X221335Y228940D01*
X221968Y228114D01*
X222570Y227652D01*
X222580Y227575D01*
X223117Y226278D01*
X223972Y225165D01*
X225085Y224310D01*
X226382Y223773D01*
X227774Y223590D01*
X265967D01*
X266000Y223594D01*
X266034Y223590D01*
X288352D01*
X288681Y223161D01*
X289507Y222528D01*
X290468Y222129D01*
X291500Y221993D01*
X292532Y222129D01*
X293493Y222528D01*
X294319Y223161D01*
X294953Y223987D01*
X295351Y224948D01*
X295390Y225246D01*
X296156Y226245D01*
X296693Y227541D01*
X296877Y228933D01*
X296693Y230325D01*
X296156Y231621D01*
X295390Y232620D01*
X295351Y232918D01*
X294953Y233879D01*
X294319Y234705D01*
X293493Y235338D01*
X292532Y235737D01*
X291500Y235873D01*
X290468Y235737D01*
X289507Y235338D01*
X288681Y234705D01*
X288403Y234343D01*
X266254D01*
X266000Y234377D01*
X265746Y234343D01*
X232742D01*
X232686Y234386D01*
X231725Y234784D01*
X231520Y234811D01*
X230462Y235623D01*
X229165Y236160D01*
X227774Y236343D01*
D02*
G37*
G36*
X352417Y185400D02*
Y181000D01*
X355309D01*
Y182075D01*
X355193Y182952D01*
X354854Y183770D01*
X354315Y184473D01*
X353613Y185012D01*
X352795Y185351D01*
X352417Y185400D01*
D02*
G37*
G36*
X351417D02*
X351040Y185351D01*
X350222Y185012D01*
X349519Y184473D01*
X348980Y183770D01*
X348642Y182952D01*
X348526Y182075D01*
Y181000D01*
X351417D01*
Y185400D01*
D02*
G37*
G36*
X355309Y180000D02*
X352417D01*
Y175600D01*
X352795Y175649D01*
X353613Y175988D01*
X354315Y176527D01*
X354854Y177230D01*
X355193Y178048D01*
X355309Y178925D01*
Y180000D01*
D02*
G37*
G36*
X351417D02*
X348526D01*
Y178925D01*
X348642Y178048D01*
X348980Y177230D01*
X349519Y176527D01*
X350222Y175988D01*
X351040Y175649D01*
X351417Y175600D01*
Y180000D01*
D02*
G37*
G36*
X273853Y173587D02*
X273853Y173587D01*
X267947D01*
X266915Y173451D01*
X265954Y173053D01*
X265128Y172419D01*
X264494Y171593D01*
X264096Y170632D01*
X263960Y169600D01*
X264096Y168568D01*
X264494Y167607D01*
X265128Y166781D01*
X265954Y166147D01*
X266915Y165749D01*
X267947Y165613D01*
X273193D01*
X273953Y165513D01*
X273953Y165513D01*
X286592D01*
X286595Y165507D01*
X287228Y164681D01*
X288054Y164047D01*
X289015Y163649D01*
X290047Y163513D01*
X295953D01*
X296985Y163649D01*
X297946Y164047D01*
X298772Y164681D01*
X299406Y165507D01*
X299804Y166468D01*
X299940Y167500D01*
X299804Y168532D01*
X299406Y169493D01*
X298772Y170319D01*
X297946Y170953D01*
X296985Y171351D01*
X296484Y171417D01*
X296453Y171493D01*
X295819Y172319D01*
X294993Y172953D01*
X294032Y173351D01*
X293000Y173487D01*
X274612D01*
X273853Y173587D01*
D02*
G37*
G36*
X230693Y164054D02*
X228240D01*
Y160567D01*
X234614D01*
X234544Y161099D01*
X234146Y162060D01*
X233512Y162886D01*
X232686Y163520D01*
X231725Y163918D01*
X230693Y164054D01*
D02*
G37*
G36*
X227240D02*
X224787D01*
X223756Y163918D01*
X222794Y163520D01*
X221968Y162886D01*
X221335Y162060D01*
X220936Y161099D01*
X220866Y160567D01*
X227240D01*
Y164054D01*
D02*
G37*
G36*
X73213D02*
X70760D01*
Y160567D01*
X77134D01*
X77064Y161099D01*
X76665Y162060D01*
X76032Y162886D01*
X75206Y163520D01*
X74244Y163918D01*
X73213Y164054D01*
D02*
G37*
G36*
X69760D02*
X67307D01*
X66275Y163918D01*
X65314Y163520D01*
X64488Y162886D01*
X63854Y162060D01*
X63456Y161099D01*
X63386Y160567D01*
X69760D01*
Y164054D01*
D02*
G37*
G36*
X273953Y163587D02*
X271500D01*
Y160100D01*
X277874D01*
X277804Y160632D01*
X277406Y161593D01*
X276772Y162419D01*
X275946Y163053D01*
X274985Y163451D01*
X273953Y163587D01*
D02*
G37*
G36*
X270500D02*
X268047D01*
X267015Y163451D01*
X266054Y163053D01*
X265228Y162419D01*
X264595Y161593D01*
X264196Y160632D01*
X264126Y160100D01*
X270500D01*
Y163587D01*
D02*
G37*
G36*
X33043Y164877D02*
X30000D01*
Y160000D01*
X38354D01*
X38237Y160892D01*
X37700Y162188D01*
X36845Y163302D01*
X35732Y164156D01*
X34435Y164693D01*
X33043Y164877D01*
D02*
G37*
G36*
X29000D02*
X25957D01*
X24565Y164693D01*
X23268Y164156D01*
X22155Y163302D01*
X21300Y162188D01*
X20763Y160892D01*
X20646Y160000D01*
X29000D01*
Y164877D01*
D02*
G37*
G36*
X234614Y159567D02*
X228240D01*
Y156080D01*
X230693D01*
X231725Y156216D01*
X232686Y156614D01*
X233512Y157248D01*
X234146Y158073D01*
X234544Y159035D01*
X234614Y159567D01*
D02*
G37*
G36*
X227240D02*
X220866D01*
X220936Y159035D01*
X221335Y158073D01*
X221968Y157248D01*
X222794Y156614D01*
X223756Y156216D01*
X224787Y156080D01*
X227240D01*
Y159567D01*
D02*
G37*
G36*
X77134D02*
X70760D01*
Y156080D01*
X73213D01*
X74244Y156216D01*
X75206Y156614D01*
X76032Y157248D01*
X76665Y158073D01*
X77064Y159035D01*
X77134Y159567D01*
D02*
G37*
G36*
X69760D02*
X63386D01*
X63456Y159035D01*
X63854Y158073D01*
X64488Y157248D01*
X65314Y156614D01*
X66275Y156216D01*
X67307Y156080D01*
X69760D01*
Y159567D01*
D02*
G37*
G36*
X277874Y159100D02*
X271500D01*
Y155613D01*
X273953D01*
X274985Y155749D01*
X275946Y156147D01*
X276772Y156781D01*
X277406Y157607D01*
X277804Y158568D01*
X277874Y159100D01*
D02*
G37*
G36*
X270500D02*
X264126D01*
X264196Y158568D01*
X264595Y157607D01*
X265228Y156781D01*
X266054Y156147D01*
X267015Y155749D01*
X268047Y155613D01*
X270500D01*
Y159100D01*
D02*
G37*
G36*
X38354Y159000D02*
X30000D01*
Y154123D01*
X33043D01*
X34435Y154306D01*
X35732Y154844D01*
X36845Y155698D01*
X37700Y156812D01*
X38237Y158108D01*
X38354Y159000D01*
D02*
G37*
G36*
X29000D02*
X20646D01*
X20763Y158108D01*
X21300Y156812D01*
X22155Y155698D01*
X23268Y154844D01*
X24565Y154306D01*
X25957Y154123D01*
X29000D01*
Y159000D01*
D02*
G37*
G36*
X352417Y155716D02*
Y149343D01*
X355904D01*
Y151795D01*
X355768Y152827D01*
X355370Y153789D01*
X354736Y154614D01*
X353911Y155248D01*
X352949Y155646D01*
X352417Y155716D01*
D02*
G37*
G36*
X351417D02*
X350885Y155646D01*
X349924Y155248D01*
X349098Y154614D01*
X348465Y153789D01*
X348066Y152827D01*
X347931Y151795D01*
Y149343D01*
X351417D01*
Y155716D01*
D02*
G37*
G36*
X355904Y148343D02*
X352417D01*
Y141969D01*
X352949Y142039D01*
X353911Y142437D01*
X354736Y143071D01*
X355370Y143896D01*
X355768Y144858D01*
X355904Y145890D01*
Y148343D01*
D02*
G37*
G36*
X351417D02*
X347931D01*
Y145890D01*
X348066Y144858D01*
X348465Y143896D01*
X349098Y143071D01*
X349924Y142437D01*
X350885Y142039D01*
X351417Y141969D01*
Y148343D01*
D02*
G37*
G36*
X511917Y155782D02*
X510885Y155646D01*
X509924Y155248D01*
X509098Y154614D01*
X508465Y153789D01*
X508066Y152827D01*
X507931Y151795D01*
Y145890D01*
X508066Y144858D01*
X508465Y143896D01*
X509098Y143071D01*
X509924Y142437D01*
X510885Y142039D01*
X511917Y141903D01*
X512949Y142039D01*
X513911Y142437D01*
X514737Y143071D01*
X515370Y143896D01*
X515768Y144858D01*
X515904Y145890D01*
Y151795D01*
X515768Y152827D01*
X515370Y153789D01*
X514737Y154614D01*
X513911Y155248D01*
X512949Y155646D01*
X511917Y155782D01*
D02*
G37*
G36*
X501917D02*
X500885Y155646D01*
X499924Y155248D01*
X499098Y154614D01*
X498465Y153789D01*
X498066Y152827D01*
X497930Y151795D01*
Y145890D01*
X498066Y144858D01*
X498465Y143896D01*
X499098Y143071D01*
X499924Y142437D01*
X500885Y142039D01*
X501917Y141903D01*
X502949Y142039D01*
X503911Y142437D01*
X504737Y143071D01*
X505370Y143896D01*
X505768Y144858D01*
X505904Y145890D01*
Y151795D01*
X505768Y152827D01*
X505370Y153789D01*
X504737Y154614D01*
X503911Y155248D01*
X502949Y155646D01*
X501917Y155782D01*
D02*
G37*
G36*
X491917D02*
X490885Y155646D01*
X489924Y155248D01*
X489098Y154614D01*
X488465Y153789D01*
X488066Y152827D01*
X487930Y151795D01*
Y145890D01*
X488066Y144858D01*
X488465Y143896D01*
X489098Y143071D01*
X489924Y142437D01*
X490885Y142039D01*
X491917Y141903D01*
X492949Y142039D01*
X493911Y142437D01*
X494736Y143071D01*
X495370Y143896D01*
X495768Y144858D01*
X495904Y145890D01*
Y151795D01*
X495768Y152827D01*
X495370Y153789D01*
X494736Y154614D01*
X493911Y155248D01*
X492949Y155646D01*
X491917Y155782D01*
D02*
G37*
G36*
X481917D02*
X480885Y155646D01*
X479924Y155248D01*
X479098Y154614D01*
X478465Y153789D01*
X478066Y152827D01*
X477930Y151795D01*
Y145890D01*
X478066Y144858D01*
X478465Y143896D01*
X479098Y143071D01*
X479924Y142437D01*
X480885Y142039D01*
X481917Y141903D01*
X482949Y142039D01*
X483911Y142437D01*
X484736Y143071D01*
X485370Y143896D01*
X485768Y144858D01*
X485904Y145890D01*
Y151795D01*
X485768Y152827D01*
X485370Y153789D01*
X484736Y154614D01*
X483911Y155248D01*
X482949Y155646D01*
X481917Y155782D01*
D02*
G37*
G36*
X471917D02*
X470885Y155646D01*
X469924Y155248D01*
X469098Y154614D01*
X468465Y153789D01*
X468066Y152827D01*
X467931Y151795D01*
Y145890D01*
X468066Y144858D01*
X468465Y143896D01*
X469098Y143071D01*
X469924Y142437D01*
X470885Y142039D01*
X471917Y141903D01*
X472949Y142039D01*
X473911Y142437D01*
X474736Y143071D01*
X475370Y143896D01*
X475768Y144858D01*
X475904Y145890D01*
Y151795D01*
X475768Y152827D01*
X475370Y153789D01*
X474736Y154614D01*
X473911Y155248D01*
X472949Y155646D01*
X471917Y155782D01*
D02*
G37*
G36*
X461917D02*
X460885Y155646D01*
X459924Y155248D01*
X459098Y154614D01*
X458465Y153789D01*
X458066Y152827D01*
X457931Y151795D01*
Y145890D01*
X458066Y144858D01*
X458465Y143896D01*
X459098Y143071D01*
X459924Y142437D01*
X460885Y142039D01*
X461917Y141903D01*
X462949Y142039D01*
X463911Y142437D01*
X464737Y143071D01*
X465370Y143896D01*
X465768Y144858D01*
X465904Y145890D01*
Y151795D01*
X465768Y152827D01*
X465370Y153789D01*
X464737Y154614D01*
X463911Y155248D01*
X462949Y155646D01*
X461917Y155782D01*
D02*
G37*
G36*
X451917D02*
X450885Y155646D01*
X449924Y155248D01*
X449098Y154614D01*
X448465Y153789D01*
X448066Y152827D01*
X447930Y151795D01*
Y145890D01*
X448066Y144858D01*
X448465Y143896D01*
X449098Y143071D01*
X449924Y142437D01*
X450885Y142039D01*
X451917Y141903D01*
X452949Y142039D01*
X453911Y142437D01*
X454737Y143071D01*
X455370Y143896D01*
X455768Y144858D01*
X455904Y145890D01*
Y151795D01*
X455768Y152827D01*
X455370Y153789D01*
X454737Y154614D01*
X453911Y155248D01*
X452949Y155646D01*
X451917Y155782D01*
D02*
G37*
G36*
X441917D02*
X440885Y155646D01*
X439924Y155248D01*
X439098Y154614D01*
X438465Y153789D01*
X438066Y152827D01*
X437930Y151795D01*
Y145890D01*
X438066Y144858D01*
X438465Y143896D01*
X439098Y143071D01*
X439924Y142437D01*
X440885Y142039D01*
X441917Y141903D01*
X442949Y142039D01*
X443911Y142437D01*
X444736Y143071D01*
X445370Y143896D01*
X445768Y144858D01*
X445904Y145890D01*
Y151795D01*
X445768Y152827D01*
X445370Y153789D01*
X444736Y154614D01*
X443911Y155248D01*
X442949Y155646D01*
X441917Y155782D01*
D02*
G37*
G36*
X431917D02*
X430885Y155646D01*
X429924Y155248D01*
X429098Y154614D01*
X428465Y153789D01*
X428066Y152827D01*
X427930Y151795D01*
Y145890D01*
X428066Y144858D01*
X428465Y143896D01*
X429098Y143071D01*
X429924Y142437D01*
X430885Y142039D01*
X431917Y141903D01*
X432949Y142039D01*
X433911Y142437D01*
X434736Y143071D01*
X435370Y143896D01*
X435768Y144858D01*
X435904Y145890D01*
Y151795D01*
X435768Y152827D01*
X435370Y153789D01*
X434736Y154614D01*
X433911Y155248D01*
X432949Y155646D01*
X431917Y155782D01*
D02*
G37*
G36*
X421917D02*
X420885Y155646D01*
X419924Y155248D01*
X419098Y154614D01*
X418465Y153789D01*
X418066Y152827D01*
X417931Y151795D01*
Y145890D01*
X418066Y144858D01*
X418465Y143896D01*
X419098Y143071D01*
X419924Y142437D01*
X420885Y142039D01*
X421917Y141903D01*
X422949Y142039D01*
X423911Y142437D01*
X424736Y143071D01*
X425370Y143896D01*
X425768Y144858D01*
X425904Y145890D01*
Y151795D01*
X425768Y152827D01*
X425370Y153789D01*
X424736Y154614D01*
X423911Y155248D01*
X422949Y155646D01*
X421917Y155782D01*
D02*
G37*
G36*
X411917D02*
X410885Y155646D01*
X409924Y155248D01*
X409098Y154614D01*
X408465Y153789D01*
X408066Y152827D01*
X407931Y151795D01*
Y145890D01*
X408066Y144858D01*
X408465Y143896D01*
X409098Y143071D01*
X409924Y142437D01*
X410885Y142039D01*
X411917Y141903D01*
X412949Y142039D01*
X413911Y142437D01*
X414737Y143071D01*
X415370Y143896D01*
X415768Y144858D01*
X415904Y145890D01*
Y151795D01*
X415768Y152827D01*
X415370Y153789D01*
X414737Y154614D01*
X413911Y155248D01*
X412949Y155646D01*
X411917Y155782D01*
D02*
G37*
G36*
X401917D02*
X400885Y155646D01*
X399924Y155248D01*
X399098Y154614D01*
X398465Y153789D01*
X398066Y152827D01*
X397931Y151795D01*
Y145890D01*
X398066Y144858D01*
X398465Y143896D01*
X399098Y143071D01*
X399924Y142437D01*
X400885Y142039D01*
X401917Y141903D01*
X402949Y142039D01*
X403911Y142437D01*
X404737Y143071D01*
X405370Y143896D01*
X405768Y144858D01*
X405904Y145890D01*
Y151795D01*
X405768Y152827D01*
X405370Y153789D01*
X404737Y154614D01*
X403911Y155248D01*
X402949Y155646D01*
X401917Y155782D01*
D02*
G37*
G36*
X391917D02*
X390885Y155646D01*
X389924Y155248D01*
X389098Y154614D01*
X388465Y153789D01*
X388066Y152827D01*
X387930Y151795D01*
Y145890D01*
X388066Y144858D01*
X388465Y143896D01*
X389098Y143071D01*
X389924Y142437D01*
X390885Y142039D01*
X391917Y141903D01*
X392949Y142039D01*
X393911Y142437D01*
X394737Y143071D01*
X395370Y143896D01*
X395768Y144858D01*
X395904Y145890D01*
Y151795D01*
X395768Y152827D01*
X395370Y153789D01*
X394737Y154614D01*
X393911Y155248D01*
X392949Y155646D01*
X391917Y155782D01*
D02*
G37*
G36*
X381917D02*
X380885Y155646D01*
X379924Y155248D01*
X379098Y154614D01*
X378465Y153789D01*
X378066Y152827D01*
X377930Y151795D01*
Y145890D01*
X378066Y144858D01*
X378465Y143896D01*
X379098Y143071D01*
X379924Y142437D01*
X380885Y142039D01*
X381917Y141903D01*
X382949Y142039D01*
X383911Y142437D01*
X384736Y143071D01*
X385370Y143896D01*
X385768Y144858D01*
X385904Y145890D01*
Y151795D01*
X385768Y152827D01*
X385370Y153789D01*
X384736Y154614D01*
X383911Y155248D01*
X382949Y155646D01*
X381917Y155782D01*
D02*
G37*
G36*
X371917D02*
X370885Y155646D01*
X369924Y155248D01*
X369098Y154614D01*
X368465Y153789D01*
X368066Y152827D01*
X367931Y151795D01*
Y145890D01*
X368066Y144858D01*
X368465Y143896D01*
X369098Y143071D01*
X369924Y142437D01*
X370885Y142039D01*
X371917Y141903D01*
X372949Y142039D01*
X373911Y142437D01*
X374736Y143071D01*
X375370Y143896D01*
X375768Y144858D01*
X375904Y145890D01*
Y151795D01*
X375768Y152827D01*
X375370Y153789D01*
X374736Y154614D01*
X373911Y155248D01*
X372949Y155646D01*
X371917Y155782D01*
D02*
G37*
G36*
X361917D02*
X360885Y155646D01*
X359924Y155248D01*
X359098Y154614D01*
X358465Y153789D01*
X358066Y152827D01*
X357930Y151795D01*
Y145890D01*
X358066Y144858D01*
X358465Y143896D01*
X359098Y143071D01*
X359924Y142437D01*
X360885Y142039D01*
X361917Y141903D01*
X362949Y142039D01*
X363911Y142437D01*
X364737Y143071D01*
X365370Y143896D01*
X365768Y144858D01*
X365904Y145890D01*
Y151795D01*
X365768Y152827D01*
X365370Y153789D01*
X364737Y154614D01*
X363911Y155248D01*
X362949Y155646D01*
X361917Y155782D01*
D02*
G37*
G36*
X446500Y132487D02*
X446500Y132487D01*
X208500D01*
X208500Y132487D01*
X207468Y132351D01*
X206507Y131953D01*
X205681Y131319D01*
X187181Y112819D01*
X186547Y111993D01*
X186149Y111032D01*
X186013Y110000D01*
X186013Y110000D01*
Y88500D01*
X186013Y88500D01*
X186149Y87468D01*
X186547Y86507D01*
X187181Y85681D01*
X204181Y68681D01*
X205007Y68047D01*
X205968Y67649D01*
X207000Y67513D01*
X207000Y67513D01*
X227453D01*
X228485Y67649D01*
X229446Y68047D01*
X230272Y68681D01*
X230906Y69507D01*
X231304Y70468D01*
X231440Y71500D01*
X231304Y72532D01*
X230906Y73493D01*
X230272Y74319D01*
X229446Y74953D01*
X228485Y75351D01*
X227453Y75487D01*
X208651D01*
X193987Y90151D01*
Y108349D01*
X210151Y124513D01*
X444849D01*
X457931Y111431D01*
Y51795D01*
Y48842D01*
Y45890D01*
X458066Y44858D01*
X458465Y43896D01*
X459098Y43071D01*
X459924Y42437D01*
X460885Y42039D01*
X461917Y41903D01*
X462949Y42039D01*
X463911Y42437D01*
X464737Y43071D01*
X465370Y43896D01*
X465768Y44858D01*
X465904Y45890D01*
Y51795D01*
Y113083D01*
X465768Y114115D01*
X465370Y115076D01*
X464737Y115902D01*
X464736Y115902D01*
X449319Y131319D01*
X448493Y131953D01*
X447532Y132351D01*
X447412Y132367D01*
X446500Y132487D01*
D02*
G37*
G36*
X156453Y130887D02*
X154000D01*
Y127400D01*
X160374D01*
X160304Y127932D01*
X159906Y128893D01*
X159272Y129719D01*
X158446Y130353D01*
X157485Y130751D01*
X156453Y130887D01*
D02*
G37*
G36*
X153000D02*
X150547D01*
X149515Y130751D01*
X148554Y130353D01*
X147728Y129719D01*
X147095Y128893D01*
X146696Y127932D01*
X146626Y127400D01*
X153000D01*
Y130887D01*
D02*
G37*
G36*
X160374Y126400D02*
X154000D01*
Y122913D01*
X156453D01*
X157485Y123049D01*
X158446Y123447D01*
X159272Y124081D01*
X159906Y124907D01*
X160304Y125868D01*
X160374Y126400D01*
D02*
G37*
G36*
X153000D02*
X146626D01*
X146696Y125868D01*
X147095Y124907D01*
X147728Y124081D01*
X148554Y123447D01*
X149515Y123049D01*
X150547Y122913D01*
X153000D01*
Y126400D01*
D02*
G37*
G36*
X439000Y121487D02*
X439000Y121487D01*
X215000D01*
X215000Y121487D01*
X213968Y121351D01*
X213007Y120953D01*
X212181Y120319D01*
X212181Y120319D01*
X199181Y107319D01*
X198547Y106493D01*
X198149Y105532D01*
X198013Y104500D01*
X198013Y104500D01*
Y98000D01*
X198013Y98000D01*
X198149Y96968D01*
X198547Y96007D01*
X199181Y95181D01*
X205681Y88681D01*
X205681Y88681D01*
X206507Y88047D01*
X207468Y87649D01*
X208500Y87513D01*
X208500Y87513D01*
X227453D01*
X228485Y87649D01*
X229446Y88047D01*
X230272Y88681D01*
X230906Y89507D01*
X231304Y90468D01*
X231440Y91500D01*
X231304Y92532D01*
X230906Y93493D01*
X230272Y94319D01*
X229446Y94953D01*
X228485Y95351D01*
X227453Y95487D01*
X210151D01*
X205987Y99651D01*
Y102849D01*
X216651Y113513D01*
X437349D01*
X447930Y102931D01*
Y51795D01*
Y48842D01*
Y45890D01*
X448066Y44858D01*
X448465Y43896D01*
X449098Y43071D01*
X449924Y42437D01*
X450885Y42039D01*
X451917Y41903D01*
X452949Y42039D01*
X453911Y42437D01*
X454737Y43071D01*
X455370Y43896D01*
X455768Y44858D01*
X455904Y45890D01*
Y51795D01*
Y104583D01*
X455904Y104583D01*
X455768Y105615D01*
X455370Y106576D01*
X454737Y107402D01*
X441819Y120319D01*
X440993Y120953D01*
X440032Y121351D01*
X439912Y121367D01*
X439000Y121487D01*
D02*
G37*
G36*
X156553Y120887D02*
X150647D01*
X149615Y120751D01*
X148841Y120430D01*
X135400D01*
X134486Y120310D01*
X133635Y119957D01*
X132904Y119396D01*
X119038Y105530D01*
X110759D01*
X109985Y105851D01*
X108953Y105987D01*
X103047D01*
X102015Y105851D01*
X101054Y105453D01*
X100228Y104819D01*
X99594Y103993D01*
X99196Y103032D01*
X99060Y102000D01*
X99196Y100968D01*
X99594Y100007D01*
X100228Y99181D01*
X101054Y98547D01*
X102015Y98149D01*
X103047Y98013D01*
X108953D01*
X109985Y98149D01*
X110759Y98470D01*
X120500D01*
X121414Y98590D01*
X122265Y98943D01*
X122996Y99504D01*
X136862Y113370D01*
X148841D01*
X149615Y113049D01*
X150647Y112913D01*
X156553D01*
X157585Y113049D01*
X158546Y113447D01*
X159372Y114081D01*
X160005Y114907D01*
X160404Y115868D01*
X160540Y116900D01*
X160404Y117932D01*
X160005Y118893D01*
X159372Y119719D01*
X158546Y120353D01*
X157585Y120751D01*
X156553Y120887D01*
D02*
G37*
G36*
X430500Y110487D02*
X430500Y110487D01*
X229500D01*
X229500Y110487D01*
X228468Y110351D01*
X227507Y109953D01*
X226681Y109319D01*
X226681Y109319D01*
X222849Y105487D01*
X221547D01*
X220515Y105351D01*
X219554Y104953D01*
X218728Y104319D01*
X218094Y103493D01*
X217696Y102532D01*
X217560Y101500D01*
X217696Y100468D01*
X218094Y99507D01*
X218728Y98681D01*
X219554Y98047D01*
X220515Y97649D01*
X221547Y97513D01*
X224500D01*
X224500Y97513D01*
X224500Y97513D01*
X227453D01*
X228485Y97649D01*
X229446Y98047D01*
X230272Y98681D01*
X230906Y99507D01*
X231304Y100468D01*
X231440Y101500D01*
X231356Y102137D01*
X231685Y102513D01*
X428849D01*
X437930Y93431D01*
Y51795D01*
Y48842D01*
Y45890D01*
X438066Y44858D01*
X438465Y43896D01*
X439098Y43071D01*
X439924Y42437D01*
X440885Y42039D01*
X441917Y41903D01*
X442949Y42039D01*
X443911Y42437D01*
X444736Y43071D01*
X445370Y43896D01*
X445768Y44858D01*
X445904Y45890D01*
Y51795D01*
Y95083D01*
X445904Y95083D01*
X445768Y96115D01*
X445370Y97076D01*
X444736Y97902D01*
X444736Y97902D01*
X433319Y109319D01*
X432493Y109953D01*
X431532Y110351D01*
X431412Y110367D01*
X430500Y110487D01*
D02*
G37*
G36*
X420000Y101877D02*
X418608Y101693D01*
X417312Y101156D01*
X416439Y100487D01*
X376500D01*
X375468Y100351D01*
X374507Y99953D01*
X373681Y99319D01*
X373681Y99319D01*
X359849Y85487D01*
X221547D01*
X220515Y85351D01*
X219554Y84953D01*
X218728Y84319D01*
X218094Y83493D01*
X217696Y82532D01*
X217560Y81500D01*
X217696Y80468D01*
X218094Y79507D01*
X218728Y78681D01*
X219554Y78047D01*
X220515Y77649D01*
X221547Y77513D01*
X361500D01*
X361500Y77513D01*
X362532Y77649D01*
X363493Y78047D01*
X364319Y78681D01*
X378151Y92513D01*
X416439D01*
X417312Y91844D01*
X418608Y91307D01*
X420000Y91123D01*
X421392Y91307D01*
X422688Y91844D01*
X423802Y92698D01*
X424656Y93812D01*
X425194Y95108D01*
X425377Y96500D01*
X425194Y97892D01*
X424656Y99188D01*
X423802Y100302D01*
X422688Y101156D01*
X421392Y101693D01*
X420000Y101877D01*
D02*
G37*
G36*
X29500Y146439D02*
X28146Y146306D01*
X26845Y145911D01*
X25645Y145270D01*
X25015Y144753D01*
X24565Y144694D01*
X23268Y144156D01*
X22155Y143302D01*
X21300Y142188D01*
X20763Y140892D01*
X20580Y139500D01*
X20763Y138108D01*
X21300Y136812D01*
X22155Y135698D01*
X22561Y135386D01*
Y105500D01*
X22694Y104146D01*
X23089Y102845D01*
X23731Y101645D01*
X24593Y100593D01*
X48408Y76779D01*
X49460Y75915D01*
X50660Y75274D01*
X51961Y74879D01*
X53315Y74746D01*
X70500D01*
X71854Y74879D01*
X73155Y75274D01*
X74355Y75915D01*
X75318Y76705D01*
X79358D01*
X80647Y76875D01*
X81848Y77373D01*
X82879Y78164D01*
X83671Y79195D01*
X84168Y80396D01*
X84338Y81685D01*
X84168Y82974D01*
X83671Y84175D01*
X82879Y85206D01*
X81848Y85997D01*
X80647Y86495D01*
X79358Y86665D01*
X75318D01*
X74355Y87454D01*
X73155Y88096D01*
X71854Y88491D01*
X70500Y88624D01*
X56189D01*
X36439Y108374D01*
Y135386D01*
X36845Y135698D01*
X37700Y136812D01*
X38237Y138108D01*
X38420Y139500D01*
X38237Y140892D01*
X37700Y142188D01*
X36845Y143302D01*
X35732Y144156D01*
X34435Y144694D01*
X33985Y144753D01*
X33355Y145270D01*
X32155Y145911D01*
X30854Y146306D01*
X29500Y146439D01*
D02*
G37*
G36*
X69760Y343872D02*
X68406Y343739D01*
X67104Y343344D01*
X65905Y342703D01*
X64853Y341840D01*
X4593Y281580D01*
X3731Y280528D01*
X3089Y279329D01*
X2694Y278027D01*
X2561Y276673D01*
Y97500D01*
X2694Y96146D01*
X3089Y94845D01*
X3731Y93645D01*
X4593Y92593D01*
X40093Y57093D01*
X41145Y56230D01*
X42345Y55589D01*
X43646Y55194D01*
X45000Y55061D01*
X70500D01*
X71854Y55194D01*
X73155Y55589D01*
X74355Y56230D01*
X75318Y57020D01*
X79358D01*
X80647Y57190D01*
X81848Y57687D01*
X82272Y58013D01*
X108953D01*
X109985Y58149D01*
X110946Y58547D01*
X111772Y59181D01*
X112406Y60007D01*
X112804Y60968D01*
X112940Y62000D01*
X112804Y63032D01*
X112406Y63993D01*
X111772Y64819D01*
X110946Y65453D01*
X109985Y65851D01*
X108953Y65987D01*
X82272D01*
X81848Y66312D01*
X80647Y66810D01*
X79358Y66980D01*
X75318D01*
X74355Y67769D01*
X73155Y68411D01*
X71854Y68806D01*
X70500Y68939D01*
X47874D01*
X16439Y100374D01*
Y188525D01*
X17376Y188810D01*
X18575Y189451D01*
X19627Y190314D01*
X53307Y223994D01*
X70260D01*
X71614Y224128D01*
X72915Y224522D01*
X74115Y225164D01*
X75166Y226027D01*
X76029Y227078D01*
X76671Y228278D01*
X77065Y229579D01*
X77197Y230912D01*
X77200Y230933D01*
X77197Y230954D01*
X77065Y232287D01*
X76671Y233589D01*
X76029Y234788D01*
X75166Y235840D01*
X74115Y236703D01*
X72915Y237344D01*
X71614Y237739D01*
X70260Y237872D01*
X50433D01*
X49079Y237739D01*
X47778Y237344D01*
X46578Y236703D01*
X45526Y235840D01*
X16901Y207214D01*
X16439Y207405D01*
Y273799D01*
X74666Y332027D01*
X75529Y333078D01*
X76171Y334278D01*
X76565Y335579D01*
X76697Y336912D01*
X76700Y336933D01*
X76697Y336954D01*
X76565Y338287D01*
X76171Y339588D01*
X75529Y340788D01*
X74666Y341840D01*
X73615Y342703D01*
X72415Y343344D01*
X71114Y343739D01*
X69760Y343872D01*
D02*
G37*
G36*
X149059Y55644D02*
X147000D01*
Y52157D01*
X152980D01*
X152910Y52689D01*
X152512Y53651D01*
X151878Y54477D01*
X151052Y55110D01*
X150091Y55509D01*
X149059Y55644D01*
D02*
G37*
G36*
X146000D02*
X143941D01*
X142909Y55509D01*
X141947Y55110D01*
X141122Y54477D01*
X140488Y53651D01*
X140090Y52689D01*
X140020Y52157D01*
X146000D01*
Y55644D01*
D02*
G37*
G36*
X227453Y55487D02*
X225000D01*
Y52000D01*
X231374D01*
X231304Y52532D01*
X230906Y53493D01*
X230272Y54319D01*
X229446Y54953D01*
X228485Y55351D01*
X227453Y55487D01*
D02*
G37*
G36*
X188075Y54891D02*
X187000D01*
Y52000D01*
X191400D01*
X191350Y52378D01*
X191012Y53196D01*
X190473Y53898D01*
X189770Y54437D01*
X188953Y54776D01*
X188075Y54891D01*
D02*
G37*
G36*
X186000D02*
X184925D01*
X184047Y54776D01*
X183230Y54437D01*
X182527Y53898D01*
X181988Y53196D01*
X181649Y52378D01*
X181600Y52000D01*
X186000D01*
Y54891D01*
D02*
G37*
G36*
X224000Y55487D02*
X221547D01*
X220515Y55351D01*
X219554Y54953D01*
X218728Y54319D01*
X218094Y53493D01*
X217696Y52532D01*
X217626Y52000D01*
X224000D01*
Y55487D01*
D02*
G37*
G36*
X191400Y51000D02*
X187000D01*
Y48109D01*
X188075D01*
X188953Y48224D01*
X189770Y48563D01*
X190473Y49102D01*
X191012Y49804D01*
X191350Y50622D01*
X191400Y51000D01*
D02*
G37*
G36*
X186000D02*
X181600D01*
X181649Y50622D01*
X181988Y49804D01*
X182527Y49102D01*
X183230Y48563D01*
X184047Y48224D01*
X184925Y48109D01*
X186000D01*
Y51000D01*
D02*
G37*
G36*
X152980Y51157D02*
X147000D01*
Y47671D01*
X149059D01*
X150091Y47807D01*
X151052Y48205D01*
X151878Y48838D01*
X152512Y49664D01*
X152910Y50626D01*
X152980Y51157D01*
D02*
G37*
G36*
X146000D02*
X140020D01*
X140090Y50626D01*
X140488Y49664D01*
X141122Y48838D01*
X141947Y48205D01*
X142909Y47807D01*
X143941Y47671D01*
X146000D01*
Y51157D01*
D02*
G37*
G36*
X231374Y51000D02*
X225000D01*
Y47513D01*
X227453D01*
X228485Y47649D01*
X229446Y48047D01*
X230272Y48681D01*
X230906Y49507D01*
X231304Y50468D01*
X231374Y51000D01*
D02*
G37*
G36*
X224000D02*
X217626D01*
X217696Y50468D01*
X218094Y49507D01*
X218728Y48681D01*
X219554Y48047D01*
X220515Y47649D01*
X221547Y47513D01*
X224000D01*
Y51000D01*
D02*
G37*
G36*
X508500Y74877D02*
X507108Y74694D01*
X505812Y74156D01*
X504698Y73302D01*
X503844Y72188D01*
X503306Y70892D01*
X503123Y69500D01*
X503306Y68108D01*
X503844Y66812D01*
X504698Y65698D01*
X505812Y64844D01*
X507108Y64306D01*
X507340Y64276D01*
X507931Y63686D01*
Y51795D01*
Y48843D01*
X507931Y48842D01*
X507931Y48842D01*
Y45890D01*
X508066Y44858D01*
X508465Y43896D01*
X509098Y43071D01*
X509924Y42437D01*
X510885Y42039D01*
X511917Y41903D01*
X512949Y42039D01*
X513911Y42437D01*
X514737Y43071D01*
X515370Y43896D01*
X515768Y44858D01*
X515904Y45890D01*
Y48132D01*
X515987Y48760D01*
X515904Y49388D01*
Y51795D01*
Y65337D01*
X515904Y65337D01*
X515768Y66369D01*
X515370Y67330D01*
X514737Y68156D01*
X513820Y69072D01*
X513877Y69500D01*
X513694Y70892D01*
X513156Y72188D01*
X512302Y73302D01*
X511188Y74156D01*
X509892Y74694D01*
X508500Y74877D01*
D02*
G37*
G36*
X501917Y55782D02*
X500885Y55646D01*
X499924Y55248D01*
X499098Y54614D01*
X498465Y53789D01*
X498066Y52827D01*
X497930Y51795D01*
Y45890D01*
X498066Y44858D01*
X498465Y43896D01*
X499098Y43071D01*
X499924Y42437D01*
X500885Y42039D01*
X501917Y41903D01*
X502949Y42039D01*
X503911Y42437D01*
X504737Y43071D01*
X505370Y43896D01*
X505768Y44858D01*
X505904Y45890D01*
Y51795D01*
X505768Y52827D01*
X505370Y53789D01*
X504737Y54614D01*
X503911Y55248D01*
X502949Y55646D01*
X501917Y55782D01*
D02*
G37*
G36*
X385500Y285987D02*
X385500Y285987D01*
X349547D01*
X348515Y285851D01*
X347554Y285453D01*
X346728Y284819D01*
X346094Y283993D01*
X345696Y283032D01*
X345560Y282000D01*
X345696Y280968D01*
X346094Y280007D01*
X346728Y279181D01*
X347554Y278547D01*
X348515Y278149D01*
X349547Y278013D01*
X383849D01*
X435181Y226681D01*
X435181Y226681D01*
X436007Y226047D01*
X436968Y225649D01*
X438000Y225513D01*
X471349D01*
X533513Y163349D01*
Y137651D01*
X479098Y83236D01*
X478465Y82411D01*
X478066Y81449D01*
X477930Y80417D01*
X477930Y80417D01*
Y51795D01*
Y48842D01*
Y45890D01*
X478066Y44858D01*
X478465Y43896D01*
X479098Y43071D01*
X479924Y42437D01*
X480885Y42039D01*
X481917Y41903D01*
X482949Y42039D01*
X483911Y42437D01*
X484736Y43071D01*
X485370Y43896D01*
X485768Y44858D01*
X485904Y45890D01*
Y51795D01*
Y78766D01*
X540319Y133181D01*
X540953Y134007D01*
X541351Y134968D01*
X541487Y136000D01*
X541487Y136000D01*
Y165000D01*
X541351Y166032D01*
X540953Y166993D01*
X540319Y167819D01*
X540319Y167819D01*
X475819Y232319D01*
X474993Y232953D01*
X474032Y233351D01*
X473000Y233487D01*
X473000Y233487D01*
X439651D01*
X388319Y284819D01*
X387493Y285453D01*
X386532Y285851D01*
X386412Y285867D01*
X385500Y285987D01*
D02*
G37*
G36*
X471917Y55782D02*
X470885Y55646D01*
X469924Y55248D01*
X469098Y54614D01*
X468465Y53789D01*
X468066Y52827D01*
X467931Y51795D01*
Y45890D01*
X468066Y44858D01*
X468465Y43896D01*
X469098Y43071D01*
X469924Y42437D01*
X470885Y42039D01*
X471917Y41903D01*
X472949Y42039D01*
X473911Y42437D01*
X474736Y43071D01*
X475370Y43896D01*
X475768Y44858D01*
X475904Y45890D01*
Y51795D01*
X475768Y52827D01*
X475370Y53789D01*
X474736Y54614D01*
X473911Y55248D01*
X472949Y55646D01*
X471917Y55782D01*
D02*
G37*
G36*
X411917D02*
X410885Y55646D01*
X409924Y55248D01*
X409098Y54614D01*
X408465Y53789D01*
X408066Y52827D01*
X407931Y51795D01*
Y45890D01*
X408066Y44858D01*
X408465Y43896D01*
X409098Y43071D01*
X409924Y42437D01*
X410885Y42039D01*
X411917Y41903D01*
X412949Y42039D01*
X413911Y42437D01*
X414737Y43071D01*
X415370Y43896D01*
X415768Y44858D01*
X415904Y45890D01*
Y51795D01*
X415768Y52827D01*
X415370Y53789D01*
X414737Y54614D01*
X413911Y55248D01*
X412949Y55646D01*
X411917Y55782D01*
D02*
G37*
G36*
X401917D02*
X400885Y55646D01*
X399924Y55248D01*
X399098Y54614D01*
X398465Y53789D01*
X398066Y52827D01*
X397931Y51795D01*
Y45890D01*
X398066Y44858D01*
X398465Y43896D01*
X399098Y43071D01*
X399924Y42437D01*
X400885Y42039D01*
X401917Y41903D01*
X402949Y42039D01*
X403911Y42437D01*
X404737Y43071D01*
X405370Y43896D01*
X405768Y44858D01*
X405904Y45890D01*
Y51795D01*
X405768Y52827D01*
X405370Y53789D01*
X404737Y54614D01*
X403911Y55248D01*
X402949Y55646D01*
X401917Y55782D01*
D02*
G37*
G36*
X391917D02*
X390885Y55646D01*
X389924Y55248D01*
X389098Y54614D01*
X388465Y53789D01*
X388066Y52827D01*
X387930Y51795D01*
Y45890D01*
X388066Y44858D01*
X388465Y43896D01*
X389098Y43071D01*
X389924Y42437D01*
X390885Y42039D01*
X391917Y41903D01*
X392949Y42039D01*
X393911Y42437D01*
X394737Y43071D01*
X395370Y43896D01*
X395768Y44858D01*
X395904Y45890D01*
Y51795D01*
X395768Y52827D01*
X395370Y53789D01*
X394737Y54614D01*
X393911Y55248D01*
X392949Y55646D01*
X391917Y55782D01*
D02*
G37*
G36*
X381917D02*
X380885Y55646D01*
X379924Y55248D01*
X379098Y54614D01*
X378465Y53789D01*
X378066Y52827D01*
X377930Y51795D01*
Y45890D01*
X378066Y44858D01*
X378465Y43896D01*
X379098Y43071D01*
X379924Y42437D01*
X380885Y42039D01*
X381917Y41903D01*
X382949Y42039D01*
X383911Y42437D01*
X384736Y43071D01*
X385370Y43896D01*
X385768Y44858D01*
X385904Y45890D01*
Y51795D01*
X385768Y52827D01*
X385370Y53789D01*
X384736Y54614D01*
X383911Y55248D01*
X382949Y55646D01*
X381917Y55782D01*
D02*
G37*
G36*
X371917D02*
X370885Y55646D01*
X369924Y55248D01*
X369098Y54614D01*
X368465Y53789D01*
X368066Y52827D01*
X367931Y51795D01*
Y45890D01*
X368066Y44858D01*
X368465Y43896D01*
X369098Y43071D01*
X369924Y42437D01*
X370885Y42039D01*
X371917Y41903D01*
X372949Y42039D01*
X373911Y42437D01*
X374736Y43071D01*
X375370Y43896D01*
X375768Y44858D01*
X375904Y45890D01*
Y51795D01*
X375768Y52827D01*
X375370Y53789D01*
X374736Y54614D01*
X373911Y55248D01*
X372949Y55646D01*
X371917Y55782D01*
D02*
G37*
G36*
X361917D02*
X360885Y55646D01*
X359924Y55248D01*
X359098Y54614D01*
X358465Y53789D01*
X358066Y52827D01*
X357930Y51795D01*
Y45890D01*
X358066Y44858D01*
X358465Y43896D01*
X359098Y43071D01*
X359924Y42437D01*
X360885Y42039D01*
X361917Y41903D01*
X362949Y42039D01*
X363911Y42437D01*
X364737Y43071D01*
X365370Y43896D01*
X365768Y44858D01*
X365904Y45890D01*
Y51795D01*
X365768Y52827D01*
X365370Y53789D01*
X364737Y54614D01*
X363911Y55248D01*
X362949Y55646D01*
X361917Y55782D01*
D02*
G37*
G36*
X351917D02*
X350885Y55646D01*
X349924Y55248D01*
X349098Y54614D01*
X348465Y53789D01*
X348066Y52827D01*
X347931Y51795D01*
Y45890D01*
X348066Y44858D01*
X348465Y43896D01*
X349098Y43071D01*
X349924Y42437D01*
X350885Y42039D01*
X351917Y41903D01*
X352949Y42039D01*
X353911Y42437D01*
X354736Y43071D01*
X355370Y43896D01*
X355768Y44858D01*
X355904Y45890D01*
Y51795D01*
X355768Y52827D01*
X355370Y53789D01*
X354736Y54614D01*
X353911Y55248D01*
X352949Y55646D01*
X351917Y55782D01*
D02*
G37*
G36*
X341917D02*
X340885Y55646D01*
X339924Y55248D01*
X339098Y54614D01*
X338465Y53789D01*
X338066Y52827D01*
X337930Y51795D01*
Y45890D01*
X338066Y44858D01*
X338465Y43896D01*
X339098Y43071D01*
X339924Y42437D01*
X340885Y42039D01*
X341917Y41903D01*
X342949Y42039D01*
X343911Y42437D01*
X344737Y43071D01*
X345370Y43896D01*
X345768Y44858D01*
X345904Y45890D01*
Y51795D01*
X345768Y52827D01*
X345370Y53789D01*
X344737Y54614D01*
X343911Y55248D01*
X342949Y55646D01*
X341917Y55782D01*
D02*
G37*
G36*
X548500Y269987D02*
X547468Y269851D01*
X546507Y269453D01*
X545681Y268819D01*
X545681Y268819D01*
X523181Y246319D01*
X522547Y245493D01*
X522149Y244532D01*
X522013Y243500D01*
X522013Y243500D01*
Y212500D01*
X522013Y212500D01*
X522149Y211468D01*
X522547Y210507D01*
X523181Y209681D01*
X562513Y170349D01*
Y61151D01*
X530849Y29487D01*
X442569D01*
X435552Y36504D01*
Y43197D01*
X435768Y43720D01*
X435904Y44752D01*
X435904Y44752D01*
Y48842D01*
Y51795D01*
X435768Y52827D01*
X435370Y53789D01*
X434736Y54614D01*
X433911Y55248D01*
X432949Y55646D01*
X431917Y55782D01*
X430885Y55646D01*
X429924Y55248D01*
X429098Y54614D01*
X428465Y53789D01*
X428066Y52827D01*
X427930Y51795D01*
Y48842D01*
Y45954D01*
X427714Y45432D01*
X427578Y44400D01*
X427578Y44399D01*
Y34852D01*
X427578Y34852D01*
X427714Y33820D01*
X428112Y32859D01*
X428746Y32033D01*
X438098Y22681D01*
X438098Y22681D01*
X438924Y22047D01*
X439885Y21649D01*
X440917Y21513D01*
X532500D01*
X532500Y21513D01*
X533532Y21649D01*
X534493Y22047D01*
X535319Y22681D01*
X569319Y56681D01*
X569319Y56681D01*
X569953Y57507D01*
X570351Y58468D01*
X570487Y59500D01*
X570487Y59500D01*
Y172000D01*
X570487Y172000D01*
X570351Y173032D01*
X569953Y173993D01*
X569319Y174819D01*
X529987Y214151D01*
Y241849D01*
X550151Y262013D01*
X586453D01*
X587485Y262149D01*
X588446Y262547D01*
X589272Y263181D01*
X589906Y264007D01*
X590304Y264968D01*
X590440Y266000D01*
X590304Y267032D01*
X589906Y267993D01*
X589272Y268819D01*
X588446Y269453D01*
X587485Y269851D01*
X586453Y269987D01*
X548500D01*
X548500Y269987D01*
D02*
G37*
G36*
X586453Y259987D02*
X559500D01*
X558468Y259851D01*
X557507Y259453D01*
X556681Y258819D01*
X556681Y258819D01*
X546181Y248319D01*
X545547Y247493D01*
X545149Y246532D01*
X545013Y245500D01*
X545013Y245500D01*
Y231000D01*
X545013Y231000D01*
X545149Y229968D01*
X545547Y229007D01*
X546181Y228181D01*
X589013Y185349D01*
Y73151D01*
X535349Y19487D01*
X436151D01*
X425904Y29734D01*
Y48842D01*
Y51795D01*
X425768Y52827D01*
X425370Y53789D01*
X424736Y54614D01*
X423911Y55248D01*
X422949Y55646D01*
X421917Y55782D01*
X420885Y55646D01*
X419924Y55248D01*
X419098Y54614D01*
X418465Y53789D01*
X418066Y52827D01*
X417931Y51795D01*
Y48842D01*
Y45890D01*
Y28083D01*
X417931Y28083D01*
X418066Y27051D01*
X418465Y26089D01*
X419098Y25264D01*
X431681Y12681D01*
X431681Y12681D01*
X432507Y12047D01*
X433468Y11649D01*
X434500Y11513D01*
X434500Y11513D01*
X537000D01*
X537000Y11513D01*
X538032Y11649D01*
X538993Y12047D01*
X539819Y12681D01*
X595819Y68681D01*
X596453Y69507D01*
X596851Y70468D01*
X596987Y71500D01*
X596987Y71500D01*
Y187000D01*
X596987Y187000D01*
X596851Y188032D01*
X596453Y188993D01*
X595819Y189819D01*
X595819Y189819D01*
X552987Y232651D01*
Y243849D01*
X561151Y252013D01*
X586453D01*
X587485Y252149D01*
X588446Y252547D01*
X589272Y253181D01*
X589906Y254007D01*
X590304Y254968D01*
X590440Y256000D01*
X590304Y257032D01*
X589906Y257993D01*
X589272Y258819D01*
X588446Y259453D01*
X587485Y259851D01*
X586453Y259987D01*
D02*
G37*
%LPD*%
D29*
X591500Y331500D02*
X605500Y317500D01*
X605500Y70000D01*
X542500Y7000D02*
X605500Y70000D01*
X597500Y257000D02*
Y278500D01*
X586500Y246000D02*
X597500Y257000D01*
X583500Y246000D02*
X586500D01*
X590000Y286000D02*
X597500Y278500D01*
X202791Y240791D02*
X334758D01*
X186106Y51500D02*
X186500D01*
X224500D01*
X131342Y51657D02*
X146500D01*
X186343D01*
X186500Y51500D01*
X458612Y306000D02*
X469000D01*
X493500D01*
X449000Y315612D02*
X458612Y306000D01*
X532000Y331500D02*
X591500D01*
X516500Y316000D02*
X532000Y331500D01*
X353417Y7000D02*
X542500D01*
X593000Y71500D02*
Y187000D01*
X537000Y15500D02*
X593000Y71500D01*
X434500Y15500D02*
X537000D01*
X441917Y48842D02*
Y95083D01*
X430500Y106500D02*
X441917Y95083D01*
X229500Y106500D02*
X430500D01*
X451917Y48842D02*
Y104583D01*
X439000Y117500D02*
X451917Y104583D01*
X215000Y117500D02*
X439000D01*
X461917Y48842D02*
Y113083D01*
X446500Y128500D02*
X461917Y113083D01*
X208500Y128500D02*
X446500D01*
X361500Y81500D02*
X376500Y96500D01*
X420000D01*
X224500Y81500D02*
X361500D01*
X224500Y101500D02*
X229500Y106500D01*
X202000Y104500D02*
X215000Y117500D01*
X334075Y141000D02*
X341917Y148843D01*
X203500Y141000D02*
X334075D01*
X146500Y84000D02*
X203500Y141000D01*
X508500Y68754D02*
Y69500D01*
Y68754D02*
X511917Y65337D01*
Y48842D02*
Y65337D01*
X298917Y61500D02*
X353417Y7000D01*
X421917Y28083D02*
X434500Y15500D01*
X532500Y25500D02*
X566500Y59500D01*
X440917Y25500D02*
X532500D01*
X431565Y34852D02*
X440917Y25500D01*
X421917Y28083D02*
Y48842D01*
X224500Y61500D02*
X298917D01*
X566500Y59500D02*
Y172000D01*
X449000Y315612D02*
Y348500D01*
X434500Y363000D02*
X449000Y348500D01*
X206500Y363000D02*
X434500D01*
X394908Y292000D02*
X434908Y252000D01*
X352500Y292000D02*
X394908D01*
X434908Y252000D02*
X470766D01*
X552406Y170360D01*
X291640Y250173D02*
X296000Y254534D01*
X244739Y250173D02*
X291640D01*
X237273Y257639D02*
Y286161D01*
Y257639D02*
X244739Y250173D01*
X246000Y290774D02*
Y291947D01*
X241886Y290774D02*
X246000D01*
X237273Y286161D02*
X241886Y290774D01*
X245047Y292900D02*
X246000Y291947D01*
X266000Y219000D02*
X278547D01*
X290047Y207500D01*
X293000D01*
X334500Y180500D02*
X341917D01*
X301500Y213500D02*
X334500Y180500D01*
X301500Y213500D02*
Y228933D01*
X473000Y229500D02*
X537500Y165000D01*
Y136000D02*
Y165000D01*
X481917Y80417D02*
X537500Y136000D01*
X552406Y132905D02*
Y170360D01*
X491917Y72417D02*
X552406Y132905D01*
X491917Y48842D02*
Y72417D01*
X511917Y48842D02*
X512000Y48760D01*
X431565Y34852D02*
Y44400D01*
X431917Y44752D02*
Y48842D01*
X431565Y44400D02*
X431917Y44752D01*
X549000Y231000D02*
X593000Y187000D01*
X190000Y110000D02*
X208500Y128500D01*
X190000Y88500D02*
Y110000D01*
Y88500D02*
X207000Y71500D01*
X526000Y212500D02*
X566500Y172000D01*
X526000Y212500D02*
Y243500D01*
X109567Y266067D02*
X206500Y363000D01*
X438000Y229500D02*
X473000D01*
X526000Y243500D02*
X548500Y266000D01*
X583500D01*
X352500Y282000D02*
X385500D01*
X438000Y229500D01*
X481917Y48842D02*
Y80417D01*
X549000Y245500D02*
X559500Y256000D01*
X583500D01*
X549000Y231000D02*
Y245500D01*
X186500Y61500D02*
X224500D01*
X207000Y71500D02*
X224500D01*
X202000Y98000D02*
Y104500D01*
Y98000D02*
X208500Y91500D01*
X224500D01*
X166900Y126900D02*
X200067Y160067D01*
X153500Y126900D02*
X166900D01*
X493500Y316000D02*
X516500D01*
X469000D02*
X493500D01*
X583500Y286000D02*
X590000D01*
X540500D02*
X583500D01*
X520500Y306000D02*
X540500Y286000D01*
X493500Y306000D02*
X520500D01*
X107000Y266067D02*
X109567D01*
X146500Y71342D02*
Y84000D01*
X149059Y71342D02*
X176264D01*
X352500Y258534D02*
Y272000D01*
X334758Y240791D02*
X352500Y258534D01*
X123500Y160067D02*
Y161500D01*
X202791Y240791D01*
X320500Y240500D02*
X351917Y209083D01*
Y180500D02*
Y209083D01*
X296000Y254534D02*
Y292657D01*
X84000Y111500D02*
X99400Y126900D01*
X153500D01*
X84000Y99000D02*
Y111500D01*
Y99000D02*
X131342Y51657D01*
X186106Y61500D02*
X186500D01*
X176264Y71342D02*
X186106Y61500D01*
X351917Y148843D02*
Y180500D01*
X341917Y148843D02*
Y180500D01*
X268047Y159600D02*
X271000D01*
X267580Y160067D02*
X268047Y159600D01*
X227740Y160067D02*
X267580D01*
X270900Y169600D02*
X273853D01*
X273953Y169500D01*
X293000D01*
X245047Y292900D02*
X248000D01*
X246000Y310500D02*
X257500D01*
X288000Y280000D01*
Y261000D02*
Y280000D01*
X248000Y261000D02*
Y282900D01*
X248100D01*
X70500Y62000D02*
X106000D01*
D30*
X597315Y354870D02*
D03*
Y19685D02*
D03*
X19685D02*
D03*
Y354685D02*
D03*
D31*
X248000Y261000D02*
D03*
X288000D02*
D03*
X341917Y48842D02*
D03*
X351917D02*
D03*
X361917D02*
D03*
X371917D02*
D03*
X381917D02*
D03*
X391917D02*
D03*
X401917D02*
D03*
X411917D02*
D03*
X421917D02*
D03*
X431917D02*
D03*
X441917D02*
D03*
X451917D02*
D03*
X461917D02*
D03*
X471917D02*
D03*
X481917D02*
D03*
X341917Y148843D02*
D03*
X351917D02*
D03*
X361917D02*
D03*
X371917D02*
D03*
X381917D02*
D03*
X391917D02*
D03*
X401917D02*
D03*
X411917D02*
D03*
X421917D02*
D03*
X431917D02*
D03*
X441917D02*
D03*
X451917D02*
D03*
X461917D02*
D03*
X471917D02*
D03*
X481917D02*
D03*
X511917Y48842D02*
D03*
X501917D02*
D03*
X491917D02*
D03*
X511917Y148843D02*
D03*
X501917D02*
D03*
X491917D02*
D03*
X301500Y228933D02*
D03*
X291500D02*
D03*
X256000Y336966D02*
D03*
X246000D02*
D03*
D32*
X248100Y282900D02*
D03*
X248000Y292900D02*
D03*
X246000Y320500D02*
D03*
Y310500D02*
D03*
X266000Y229000D02*
D03*
Y219000D02*
D03*
X293000Y167500D02*
D03*
Y207500D02*
D03*
X270900Y169600D02*
D03*
X271000Y159600D02*
D03*
X153600Y116900D02*
D03*
X153500Y126900D02*
D03*
X70260Y230933D02*
D03*
X227740D02*
D03*
X70260Y160067D02*
D03*
X227740D02*
D03*
X106000Y62000D02*
D03*
Y102000D02*
D03*
X227240Y266067D02*
D03*
X69760D02*
D03*
X227240Y336933D02*
D03*
X69760D02*
D03*
X352500Y272000D02*
D03*
Y282000D02*
D03*
Y292000D02*
D03*
Y302000D02*
D03*
Y312000D02*
D03*
Y322000D02*
D03*
X438996Y311528D02*
D03*
Y301528D02*
D03*
Y291528D02*
D03*
Y281528D02*
D03*
Y272000D02*
D03*
Y262000D02*
D03*
X493500Y246000D02*
D03*
Y256000D02*
D03*
Y266000D02*
D03*
Y276000D02*
D03*
Y286000D02*
D03*
Y296000D02*
D03*
Y306000D02*
D03*
Y316000D02*
D03*
X583500D02*
D03*
Y306000D02*
D03*
Y296000D02*
D03*
Y286000D02*
D03*
Y276000D02*
D03*
Y266000D02*
D03*
Y256000D02*
D03*
Y246000D02*
D03*
D33*
X29500Y139500D02*
D03*
Y159500D02*
D03*
D34*
X351917Y180500D02*
D03*
X341917D02*
D03*
D35*
X296000Y292657D02*
D03*
Y312343D02*
D03*
X146500Y51657D02*
D03*
Y71342D02*
D03*
D36*
X331500Y302000D02*
D03*
Y312000D02*
D03*
X469000Y306000D02*
D03*
Y316000D02*
D03*
X186500Y51500D02*
D03*
Y61500D02*
D03*
D37*
X70500Y81685D02*
D03*
Y62000D02*
D03*
D38*
X224500Y101500D02*
D03*
Y91500D02*
D03*
Y81500D02*
D03*
Y71500D02*
D03*
Y61500D02*
D03*
Y51500D02*
D03*
D39*
X420000Y96500D02*
D03*
X508500Y69500D02*
D03*
D40*
X9500Y97500D02*
Y276673D01*
Y97500D02*
X45000Y62000D01*
X9500Y276673D02*
X69760Y336933D01*
X45000Y62000D02*
X70500D01*
X14720Y195220D02*
X50433Y230933D01*
X70260D01*
X53315Y81685D02*
X70500D01*
X29500Y105500D02*
X53315Y81685D01*
X29500Y105500D02*
Y139500D01*
D41*
X69760Y266067D02*
X107000D01*
X200067Y160067D02*
X227740D01*
X123500D02*
X200067D01*
X109567Y266067D02*
X227240D01*
X70260Y160067D02*
X123500D01*
X107500Y198291D02*
Y250000D01*
X92000Y265500D02*
X107500Y250000D01*
X70260Y161051D02*
X107500Y198291D01*
X70260Y160067D02*
Y161051D01*
X69976Y159783D02*
X70260Y160067D01*
X29783Y159783D02*
X69976D01*
X29500Y159500D02*
X29783Y159783D01*
D42*
X583000Y245500D02*
X583500Y246000D01*
X28000Y161000D02*
X29500Y159500D01*
D43*
X256000Y336770D02*
X280427Y312343D01*
X331500Y312000D02*
X352500D01*
X340500Y272000D02*
X349547D01*
X331500Y281000D02*
X340500Y272000D01*
X331500Y281000D02*
Y302000D01*
X296000Y292657D02*
X322158D01*
X331500Y302000D01*
X296000Y312343D02*
X331157D01*
X246000Y320500D02*
Y336966D01*
X227257Y336950D02*
X245983D01*
D44*
X280427Y312343D02*
X296000D01*
X291466Y228966D02*
X291500Y228933D01*
X266034Y228966D02*
X291466D01*
X266000Y229000D02*
X266034Y228966D01*
X265967D02*
X266000Y229000D01*
X227774Y228966D02*
X265967D01*
X227740Y230933D02*
X227774Y230966D01*
X331157Y312343D02*
X331500Y312000D01*
X245983Y336950D02*
X246000Y336966D01*
X227240Y336933D02*
X227257Y336950D01*
D45*
X120500Y102000D02*
X135400Y116900D01*
X153600D01*
X106000Y102000D02*
X120500D01*
M02*
