<?xml version="1.0" standalone="no"?>
<!DOCTYPE svg PUBLIC "-//W3C//DTD SVG 20010904//EN"
 "http://www.w3.org/TR/2001/REC-SVG-20010904/DTD/svg10.dtd">
<svg version="1.0" xmlns="http://www.w3.org/2000/svg"
 width="740.000000pt" height="740.000000pt" viewBox="0 0 740.000000 740.000000"
 preserveAspectRatio="xMidYMid meet">

<g transform="translate(0.000000,740.000000) scale(0.100000,-0.100000)"
fill="#000000" stroke="none">
<path d="M5340 6460 c-40 -10 -50 -43 -50 -177 l0 -123 -35 0 -35 0 -2 -52
c-1 -29 -2 -68 -1 -85 0 -18 -3 -33 -7 -33 -4 0 -11 -45 -15 -101 -6 -80 -11
-101 -24 -105 -135 -40 -257 -181 -281 -329 -12 -72 -3 -180 17 -201 12 -12
78 -14 413 -14 349 0 401 2 414 16 24 24 22 193 -3 267 -37 106 -114 193 -218
243 -57 28 -57 29 -69 144 -3 36 -10 70 -15 75 -4 6 -9 47 -11 90 l-3 80 -40
5 -40 5 0 125 0 125 27 3 c20 2 31 -4 45 -25 10 -15 139 -200 286 -411 352
-502 327 -462 327 -543 0 -52 4 -72 20 -90 l20 -24 -7 105 c-4 69 -12 114 -22
130 -13 21 -189 273 -468 670 -177 251 -169 243 -223 230z"/>
<path d="M2765 5080 c0 -245 1 -345 2 -223 2 123 2 323 0 446 -1 122 -2 22 -2
-223z"/>
<path d="M1942 5180 c-19 -12 -30 -15 -26 -8 4 7 -9 -3 -30 -22 -65 -61 -100
-150 -99 -249 l1 -45 -20 25 -20 24 6 -52 c6 -62 24 -100 73 -154 56 -62 77
-69 207 -69 128 0 148 5 200 50 l36 32 0 -25 c0 -56 3 -57 132 -57 l121 0 -7
43 c-9 53 -20 65 -41 43 -9 -9 -20 -16 -25 -16 -10 0 -30 64 -30 98 0 40 -22
115 -48 162 -37 67 -159 188 -217 216 -66 32 -165 33 -213 4z m65 -95 c4 -83
28 -208 63 -334 11 -41 18 -76 15 -79 -11 -12 -98 -1 -133 17 -152 78 -187
297 -66 417 34 34 90 66 108 61 5 -2 11 -39 13 -82z"/>
<path d="M3405 5061 c-42 -11 -107 -45 -127 -68 -48 -53 -61 -172 -34 -301 12
-54 12 -71 -1 -120 -32 -122 -80 -188 -293 -407 -148 -152 -204 -228 -235
-320 -35 -106 -36 -287 -1 -407 8 -30 38 -92 66 -138 67 -111 82 -148 75 -182
-14 -64 -101 -79 -158 -28 -19 17 -37 30 -41 30 -14 0 -4 -50 17 -81 39 -59
111 -84 233 -80 l32 1 6 88 c12 158 18 212 25 208 3 -3 5 14 3 36 -3 23 0 38
5 35 5 -3 7 9 5 27 -3 28 0 34 20 39 36 10 96 8 103 -3 4 -6 10 -8 15 -5 19
11 85 -36 72 -50 -4 -5 1 -5 11 -2 13 5 17 1 17 -17 0 -15 5 -23 15 -22 14 1
79 -96 70 -106 -1 -1 -5 -38 -9 -80 -8 -91 -12 -127 -36 -272 -14 -93 -15
-113 -4 -135 9 -17 14 -20 14 -10 0 13 13 18 53 22 114 11 224 30 254 43 37
17 53 18 53 4 0 -18 35 -11 73 16 21 14 62 34 90 43 57 20 89 60 70 90 -16 25
-28 15 -31 -25 -3 -27 -7 -34 -18 -30 -9 3 -22 6 -29 6 -7 0 -15 8 -17 17 -3
15 -4 15 -21 -1 -15 -15 -20 -16 -33 -5 -14 11 -19 10 -31 -6 -13 -17 -15 -17
-10 -2 5 14 0 17 -26 17 -18 0 -45 7 -62 16 -38 20 -97 26 -108 11 -6 -8 -7
-5 -3 7 6 19 -26 61 -37 49 -3 -3 -11 -2 -18 3 -9 5 -7 10 7 15 17 7 17 8 1 8
-10 1 -16 5 -13 10 3 5 -1 11 -9 15 -8 3 -15 12 -15 21 0 8 -4 15 -9 15 -5 0
-12 14 -16 30 -4 17 -11 28 -16 24 -10 -6 -4 149 6 166 3 5 1 11 -3 14 -5 3
-10 35 -11 72 -2 67 -13 104 -31 104 -6 0 -11 -39 -11 -87 -1 -49 -4 -78 -6
-65 -3 13 -9 19 -15 16 -8 -5 -9 -1 -5 10 4 9 3 15 -2 12 -12 -7 -53 39 -44
49 5 4 3 5 -4 1 -7 -4 -32 3 -55 16 -32 16 -60 22 -109 23 l-66 0 14 59 c14
61 55 146 61 127 2 -6 8 -11 13 -11 4 0 6 7 3 15 -9 22 13 43 69 70 36 18 47
20 43 10 -8 -22 17 -18 36 4 11 13 13 21 6 23 -6 2 13 16 43 32 30 15 67 34
82 43 29 15 69 72 73 102 1 9 7 48 13 88 12 77 5 184 -13 207 -6 8 -27 16 -46
18 -32 3 -36 0 -53 -37 -40 -83 -5 -253 57 -283 11 -6 15 -11 8 -11 -28 -2
-70 30 -88 66 -12 26 -18 61 -18 113 -1 65 3 82 27 123 l28 48 -25 30 c-25 30
-30 48 -26 99 5 65 79 82 124 29 14 -17 31 -27 36 -24 21 13 87 -42 100 -82
20 -60 56 -93 105 -93 47 0 79 19 100 61 22 41 55 39 78 -4 23 -42 70 -71 102
-63 30 8 49 -18 65 -88 15 -67 -2 -145 -40 -186 -15 -16 -35 -30 -43 -30 -9 0
-3 12 18 34 18 19 35 49 39 66 8 44 6 141 -4 165 -7 19 -8 19 -18 -5 -32 -81
-44 -103 -82 -144 -49 -53 -92 -70 -154 -61 l-44 7 -7 -44 c-12 -82 -5 -101
45 -119 30 -11 50 -26 60 -45 16 -31 19 -134 5 -173 -7 -19 -5 -22 6 -15 8 5
19 9 24 9 6 0 9 11 7 25 -2 19 -1 22 7 10 14 -21 3 71 -15 122 -8 22 -14 41
-14 43 0 7 176 -50 182 -59 4 -6 10 -7 14 -4 3 4 20 0 36 -8 17 -9 28 -18 25
-21 -3 -2 -17 3 -31 12 -14 10 -26 13 -26 9 0 -5 -19 -18 -41 -29 -23 -10 -36
-21 -30 -23 7 -2 23 3 37 12 13 9 30 14 36 10 7 -5 8 -3 3 6 -6 10 -4 12 11 6
41 -17 73 -24 80 -18 4 4 4 2 1 -5 -4 -6 -16 -9 -27 -6 -22 6 -25 0 -10 -27 6
-12 16 -17 26 -13 13 5 13 7 2 14 -10 7 -9 9 5 9 14 0 16 -5 11 -27 -4 -16 -3
-25 1 -21 5 4 14 3 22 -3 9 -8 13 -8 13 -1 0 6 -4 14 -10 17 -5 3 -10 11 -10
18 0 6 7 2 15 -9 18 -27 12 -62 -15 -81 -11 -8 -24 -22 -30 -33 -9 -17 -5 -18
75 -19 l85 0 0 32 c0 18 7 73 16 122 19 109 14 243 -14 330 -11 33 -41 116
-68 185 l-48 125 -2 185 c-1 164 -4 191 -24 243 -57 150 -181 232 -380 252
-59 6 -67 9 -85 38 -36 58 -161 99 -240 78z m431 -472 c9 -18 49 -64 89 -103
l74 -71 -58 3 c-53 3 -59 1 -75 -22 -9 -14 -19 -40 -23 -56 -5 -26 -10 -30
-39 -30 -32 0 -34 2 -35 38 -2 63 -3 66 -29 73 -77 22 -163 -1 -174 -45 l-7
-27 -32 22 c-18 13 -33 23 -35 24 -1 1 1 16 4 33 6 30 9 32 49 32 95 0 192 49
235 120 14 22 28 40 32 40 4 0 15 -14 24 -31z m-104 -217 c6 -6 12 -30 15 -54
7 -61 -23 -98 -78 -98 -41 0 -79 26 -79 55 0 17 25 20 35 5 8 -14 21 -13 37 3
7 7 22 17 33 21 17 8 14 10 -19 19 -29 7 -45 6 -59 -2 -13 -8 -23 -9 -29 -3
-14 14 7 51 35 62 26 11 95 6 109 -8z m288 -8 c4 -5 4 -20 -1 -33 -7 -18 -12
-21 -22 -13 -19 16 -57 3 -57 -18 0 -22 19 -30 43 -18 25 13 23 -26 -4 -53
-34 -34 -109 -11 -109 32 0 12 10 23 25 29 27 10 35 40 11 40 -8 0 -22 -7 -30
-16 -15 -14 -16 -14 -16 1 0 9 12 27 26 42 22 22 32 25 75 21 28 -3 54 -9 59
-14z"/>
<path d="M5651 4673 c-1 -9 -18 -13 -48 -13 -27 0 -65 -5 -87 -11 -40 -11
-121 -78 -131 -109 -3 -10 -14 -20 -25 -23 -21 -5 -50 -88 -50 -142 0 -86 76
-201 159 -240 22 -11 41 -23 41 -27 0 -5 -60 -8 -134 -8 -146 0 -169 -8 -146
-49 10 -20 19 -21 428 -23 l417 -3 3 -125 c3 -115 10 -150 33 -150 5 0 9 63 9
140 l0 140 158 0 c86 0 163 4 170 9 8 4 12 19 10 32 -3 23 -6 24 -112 27
l-108 3 4 35 4 36 -121 -4 c-79 -2 -127 -7 -137 -16 -9 -7 -39 -13 -67 -13
-42 -1 -49 -4 -40 -15 9 -11 8 -14 -4 -14 -9 0 -20 7 -24 15 -8 13 -12 13 -31
-5 -17 -16 -35 -20 -92 -20 -39 0 -69 4 -66 9 3 4 -26 6 -64 3 -59 -4 -70 -2
-70 11 0 10 -6 13 -19 10 -21 -5 -84 31 -118 68 -36 41 -68 110 -54 119 10 5
9 9 -3 13 -21 8 -21 59 0 120 17 50 33 61 35 25 1 -17 2 -19 6 -5 6 23 11 22
101 -15 80 -33 120 -58 92 -58 -11 -1 -11 -3 3 -11 9 -5 17 -17 17 -26 0 -16
-49 -184 -55 -191 -8 -8 -73 34 -104 67 -33 35 -33 35 -12 4 11 -17 45 -46 73
-63 48 -30 57 -32 115 -27 45 3 78 13 120 37 32 18 59 34 61 35 1 1 -13 26
-33 56 -19 29 -35 57 -35 61 0 5 12 6 28 3 65 -14 112 -28 112 -34 0 -13 -48
-89 -76 -121 -16 -18 -47 -41 -69 -51 -22 -10 -33 -19 -24 -19 27 0 96 52 129
98 45 62 53 89 51 162 -2 53 -10 78 -42 140 -21 41 -41 74 -44 73 -13 -7 -25
-2 -25 11 0 23 22 31 35 12 11 -14 14 -14 18 -2 3 8 -4 21 -17 30 -21 13 -25
13 -43 -5 -19 -20 -21 -20 -56 -3 -20 10 -38 24 -40 33 -3 9 -5 10 -6 4z m-14
-31 c10 -6 10 -27 2 -98 -19 -144 -35 -148 -103 -25 -27 49 -50 93 -50 98 -2
22 123 43 151 25z m67 -18 c23 -9 20 -22 -25 -94 l-40 -65 6 50 c14 121 17
125 59 109z m-180 -104 c27 -45 47 -82 45 -84 -10 -8 -179 68 -179 80 0 17 70
95 79 89 4 -2 29 -41 55 -85z m241 59 c11 -16 -75 -139 -97 -139 -17 0 -7 29
32 88 39 61 53 72 65 51z m59 -69 c15 -28 26 -56 24 -62 -2 -6 -20 -18 -39
-25 -31 -12 -32 -13 -4 -7 16 3 34 6 40 7 5 1 10 -16 10 -38 l0 -40 -40 2
c-62 4 -105 13 -105 23 0 6 15 17 33 25 17 8 23 13 12 9 -60 -17 -77 -17 -74
0 4 18 100 154 110 155 3 1 18 -22 33 -49z m-90 -215 c20 -30 36 -59 36 -63 0
-20 -103 -64 -161 -69 -70 -7 -69 -9 -33 99 24 73 27 77 55 76 16 -1 32 2 36
5 15 16 32 4 67 -48z"/>
<path d="M5362 4394 c-1 -33 0 -63 3 -65 2 -3 45 8 95 25 102 33 117 47 19 17
-107 -33 -103 -34 -110 29 l-6 55 -1 -61z"/>
<path d="M4776 4289 c36 -40 124 -68 154 -49 19 12 18 12 -70 43 -93 34 -110
35 -84 6z"/>
<path d="M5380 4301 c0 -6 4 -13 10 -16 6 -3 7 1 4 9 -7 18 -14 21 -14 7z"/>
<path d="M1155 4030 c3 -36 14 -105 24 -155 10 -49 17 -92 15 -94 -2 -3 -21 5
-42 16 -42 24 -60 21 -72 -12 -11 -30 82 -392 129 -505 40 -94 92 -166 134
-186 32 -16 34 -19 82 -205 l49 -189 34 0 c27 0 33 3 28 15 -3 9 -30 95 -61
193 -48 154 -54 182 -45 212 28 97 -12 280 -97 449 -27 54 -64 157 -98 273
-30 103 -62 202 -70 220 -15 33 -15 32 -10 -32z"/>
<path d="M1948 3879 c-47 -27 -45 -80 3 -104 33 -17 61 -9 79 25 15 28 13 38
-15 65 -26 27 -40 30 -67 14z"/>
<path d="M3308 3763 c-11 -3 -18 -13 -17 -26 1 -19 2 -19 6 -4 3 12 11 17 23
14 13 -3 17 0 13 9 -3 8 -6 13 -7 13 0 -1 -9 -3 -18 -6z"/>
<path d="M3823 3736 c0 -8 6 -12 14 -9 7 3 10 9 7 14 -8 14 -21 11 -21 -5z"/>
<path d="M3933 3703 c9 -9 19 -14 23 -11 10 10 -6 28 -24 28 -15 0 -15 -1 1
-17z"/>
<path d="M3838 3673 c5 -21 7 -23 10 -9 2 10 0 22 -6 28 -6 6 -7 0 -4 -19z"/>
<path d="M3123 3666 c-24 -17 -30 -25 -21 -34 8 -8 8 -15 -2 -27 -7 -8 -8 -15
-2 -15 13 0 23 26 16 44 -4 9 6 20 25 31 17 8 31 18 31 20 0 10 -16 3 -47 -19z"/>
<path d="M3360 3675 c0 -8 4 -15 10 -15 5 0 7 7 4 15 -4 8 -8 15 -10 15 -2 0
-4 -7 -4 -15z"/>
<path d="M3174 3662 c-9 -14 -8 -18 6 -18 11 0 15 6 12 18 -2 10 -5 18 -6 18
-1 0 -6 -8 -12 -18z"/>
<path d="M1905 3638 c-3 -7 -18 -68 -34 -136 -23 -93 -36 -128 -53 -142 -13
-11 -26 -19 -29 -20 -3 0 -32 -32 -63 -72 -102 -128 -159 -269 -160 -399 -1
-61 3 -81 17 -97 13 -14 16 -28 11 -46 -5 -20 -2 -26 10 -26 8 0 20 9 26 20 6
11 23 26 38 34 49 26 110 97 151 175 22 42 42 88 45 101 48 233 53 283 37 324
-4 10 1 73 11 140 9 67 18 129 18 139 0 20 -18 23 -25 5z"/>
<path d="M3050 3582 c-13 -14 -12 -15 2 -10 8 4 21 1 27 -5 6 -6 11 -8 11 -3
0 4 -6 13 -13 20 -10 11 -15 10 -27 -2z"/>
<path d="M3440 3571 c0 -10 19 -25 25 -20 1 2 -3 10 -11 17 -8 7 -14 8 -14 3z"/>
<path d="M3499 3525 c18 -8 36 -15 40 -15 13 1 -45 29 -59 29 -8 0 0 -6 19
-14z"/>
<path d="M3743 3533 c-7 -3 -13 -10 -13 -16 0 -8 3 -8 11 0 6 6 18 9 25 6 8
-3 14 -3 14 0 0 8 -24 14 -37 10z"/>
<path d="M3810 3530 c0 -5 5 -10 10 -10 6 0 10 5 10 10 0 6 -4 10 -10 10 -5 0
-10 -4 -10 -10z"/>
<path d="M3685 3510 c-19 -8 -19 -9 2 -9 12 -1 25 4 28 9 7 12 -2 12 -30 0z"/>
<path d="M3563 3503 c9 -2 23 -2 30 0 6 3 -1 5 -18 5 -16 0 -22 -2 -12 -5z"/>
<path d="M3568 3483 c7 -3 16 -2 19 1 4 3 -2 6 -13 5 -11 0 -14 -3 -6 -6z"/>
<path d="M5447 3482 c-4 -5 -2 -24 2 -43 19 -74 43 -225 40 -249 -4 -25 -5
-25 -129 -30 -111 -4 -125 -7 -128 -24 -9 -45 -13 -45 491 -45 l377 -1 0 -95
c0 -88 1 -95 20 -95 19 0 20 7 20 95 l0 95 196 2 c175 3 198 5 208 21 8 12 8
22 0 35 -10 16 -44 17 -460 17 -390 1 -449 2 -446 15 1 8 17 78 36 155 18 77
31 142 30 144 -6 7 -183 11 -200 4 -10 -4 -14 -13 -10 -27 11 -39 46 -280 41
-285 -12 -11 -11 -15 -49 213 -14 86 -27 118 -39 98z"/>
<path d="M4001 3413 c1 -66 1 -67 14 -38 15 33 18 65 9 89 -14 35 -24 12 -23
-51z"/>
<path d="M3130 3366 c0 -2 7 -7 16 -10 8 -3 12 -2 9 4 -6 10 -25 14 -25 6z"/>
<path d="M2980 3296 c0 -9 5 -16 10 -16 6 0 10 4 10 9 0 6 -4 13 -10 16 -5 3
-10 -1 -10 -9z"/>
<path d="M1881 2964 c-1 -5 -9 -19 -18 -30 -21 -22 -32 -46 -64 -129 -12 -33
-26 -64 -31 -70 -13 -15 -9 -27 8 -23 16 3 117 235 110 253 -3 7 -5 6 -5 -1z"/>
<path d="M3211 2844 c0 -11 3 -14 6 -6 3 7 2 16 -1 19 -3 4 -6 -2 -5 -13z"/>
<path d="M2929 2681 c-4 -142 -4 -144 -31 -164 -38 -28 -88 -16 -143 34 -44
41 -65 49 -65 25 0 -94 168 -215 298 -216 39 0 77 -33 67 -58 -4 -9 -14 -41
-22 -71 -12 -44 -12 -59 -2 -77 9 -18 8 -36 -6 -91 -10 -37 -20 -117 -22 -178
-5 -98 0 -142 23 -246 5 -25 4 -26 -33 -23 -35 2 -41 -1 -61 -36 -12 -22 -22
-41 -22 -44 0 -4 43 -6 95 -6 87 0 96 -2 109 -22 23 -36 30 -109 12 -133 -14
-19 -28 -20 -441 -23 -320 -3 -430 0 -441 8 -9 9 -14 33 -14 76 0 83 12 94 96
94 35 0 64 3 64 6 0 3 -11 20 -24 37 l-25 32 -143 -7 -143 -6 -67 -45 c-192
-130 -420 -142 -636 -36 l-83 42 -102 -7 c-56 -4 -111 -8 -122 -10 -11 -2 -45
-7 -75 -11 -30 -3 -75 -10 -100 -15 -25 -5 -85 -16 -134 -25 -143 -27 -195
-59 -150 -92 54 -39 317 -95 614 -129 36 -4 67 -8 70 -9 3 -1 39 -5 80 -9 41
-4 116 -11 165 -16 101 -10 143 -14 430 -35 244 -17 349 -23 620 -32 282 -10
1861 -10 2150 0 420 14 843 35 1045 52 603 51 947 99 1092 154 58 23 76 44 57
67 -15 19 -122 50 -234 69 -49 8 -101 17 -114 20 -13 2 -58 7 -100 11 -42 4
-79 11 -82 16 -6 9 3 88 77 708 25 212 46 419 47 460 l2 75 -101 3 -100 3 -13
-93 c-7 -51 -19 -138 -27 -193 -7 -55 -29 -207 -48 -337 -20 -130 -49 -344
-66 -474 -17 -131 -34 -242 -36 -246 -3 -4 -57 -8 -120 -8 -97 0 -116 2 -121
17 -3 9 13 176 36 372 24 196 49 408 57 471 40 330 54 473 48 482 -8 13 -274
2 -288 -12 -4 -4 -9 -33 -10 -64 0 -31 -4 -56 -8 -56 -5 0 -8 -13 -8 -30 0
-41 20 -38 21 3 l1 32 7 -36 c4 -19 4 -58 0 -85 l-6 -49 -2 47 c-1 35 -4 46
-15 42 -14 -5 -59 -260 -60 -346 -1 -25 -4 -41 -8 -35 -4 7 -8 -7 -8 -31 0
-25 4 -41 10 -37 5 3 12 -6 16 -19 5 -19 12 -25 30 -24 30 3 32 25 2 24 -25
-1 -33 21 -24 60 9 34 23 30 33 -11 10 -43 34 -34 35 14 1 17 5 34 10 37 13 9
9 24 -7 24 -8 0 -15 5 -15 10 0 12 10 13 28 2 10 -7 11 -23 2 -78 -5 -38 -22
-154 -35 -259 -32 -236 -53 -390 -60 -432 -5 -26 -11 -33 -30 -33 -45 0 -50 7
-48 68 2 78 12 272 18 357 3 56 -1 42 -20 -65 -13 -74 -27 -150 -30 -167 -3
-18 -11 -33 -17 -33 -7 0 -9 35 -4 113 3 61 9 250 12 420 l6 307 -46 0 c-38 0
-46 -3 -46 -19 0 -10 -7 -112 -15 -227 -14 -192 -45 -695 -45 -736 0 -16 -10
-18 -71 -18 l-71 0 7 70 7 70 -33 0 c-19 0 -73 3 -121 7 l-88 6 0 -35 c0 -81
-69 -158 -174 -194 -67 -23 -210 -15 -288 15 -58 22 -143 84 -143 104 0 6 47
32 105 58 224 101 450 244 579 365 63 60 89 92 118 152 37 74 38 79 38 186 0
97 -3 117 -23 154 -81 151 -230 210 -387 151 -56 -21 -169 -97 -261 -175 -28
-24 -54 -44 -56 -44 -3 0 -9 17 -13 38 -27 151 -73 236 -156 285 -111 65 -197
63 -349 -9 -86 -41 -105 -46 -146 -41 -25 2 -76 -1 -113 -9 -36 -8 -67 -14
-67 -14 -1 0 -7 21 -14 46 l-13 46 -13 -32 c-18 -41 -34 -57 -87 -79 -63 -27
-164 -43 -299 -48 -139 -5 -193 9 -247 66 -45 48 -64 93 -71 171 -5 54 -7 40
-11 -79z m2816 49 c-7 -27 -9 -50 -5 -50 5 0 10 8 12 18 3 14 5 13 10 -6 4
-14 2 -20 -5 -15 -7 4 -8 0 -3 -13 15 -38 36 -128 31 -132 -3 -3 -5 1 -5 9 0
11 -2 11 -10 -1 -9 -13 -10 -13 -11 0 0 10 -3 9 -9 -5 -7 -15 -9 -8 -7 27 1
25 5 44 10 41 14 -9 7 22 -13 52 -22 33 -27 75 -9 75 7 0 9 10 5 25 -5 18 -2
25 8 25 12 0 12 -7 1 -50z m32 -32 c-3 -8 -6 -5 -6 6 -1 11 2 17 5 13 3 -3 4
-12 1 -19z m25 -10 c-7 -7 -12 -25 -12 -42 0 -16 -3 -27 -6 -23 -4 3 -3 27 1
53 5 34 10 43 18 35 8 -8 8 -14 -1 -23z m5 -70 c-3 -7 -5 -2 -5 12 0 14 2 19
5 13 2 -7 2 -19 0 -25z m-100 -90 c-3 -8 -6 -5 -6 6 -1 11 2 17 5 13 3 -3 4
-12 1 -19z m-1482 -26 c88 -45 126 -121 132 -262 2 -52 0 -115 -6 -140 -9 -37
-9 -29 -5 52 7 123 -9 205 -50 266 -51 76 -144 109 -247 87 -85 -18 -223 -110
-492 -327 -160 -129 -257 -188 -308 -188 -58 0 -90 13 -105 41 -13 26 -13 29
1 29 9 0 15 -7 13 -17 -4 -25 43 -45 90 -37 22 3 65 20 96 38 54 31 84 53 335
251 144 114 258 188 334 216 65 24 155 21 212 -9z m1564 -32 c1 -13 0 -13 -9
0 -5 8 -9 24 -9 35 l0 20 9 -20 c5 -11 9 -27 9 -35z m-22 -22 c-3 -8 -6 -5 -6
6 -1 11 2 17 5 13 3 -3 4 -12 1 -19z m-796 -29 c24 -17 29 -27 29 -62 -2 -111
-92 -234 -290 -393 -148 -118 -467 -317 -627 -390 -35 -15 -63 -31 -63 -35 0
-3 14 -37 31 -74 16 -37 29 -68 27 -70 -14 -11 -50 -25 -56 -21 -5 3 -31 -2
-58 -11 -37 -12 -87 -15 -208 -14 -87 1 -204 -4 -260 -11 -141 -17 -180 -16
-205 6 -29 27 -26 60 9 89 39 34 91 41 190 26 146 -21 249 2 367 82 26 18 61
45 77 61 17 15 33 28 36 28 3 0 12 -16 19 -35 7 -19 17 -35 22 -35 14 0 183
86 257 131 35 21 66 39 68 39 17 0 337 221 419 289 65 54 162 162 194 216 26
43 35 69 35 106 1 64 -16 81 -81 81 -60 -1 -122 -24 -186 -69 -55 -39 -76 -39
-25 0 107 80 221 107 279 66z m796 -11 c-3 -8 -6 -5 -6 6 -1 11 2 17 5 13 3
-3 4 -12 1 -19z m-809 -17 c8 -5 -14 -10 -57 -14 -60 -5 -90 -14 -156 -45 -5
-3 -5 0 1 7 35 38 179 73 212 52z m-308 -81 c0 -5 -5 -10 -11 -10 -5 0 -7 5
-4 10 3 6 8 10 11 10 2 0 4 -4 4 -10z m1016 -56 c-4 -9 -9 -15 -11 -12 -3 3
-3 13 1 22 4 9 9 15 11 12 3 -3 3 -13 -1 -22z m44 -30 c0 -8 -4 -12 -10 -9 -5
3 -10 10 -10 16 0 5 5 9 10 9 6 0 10 -7 10 -16z m7 -66 c-3 -8 -6 -5 -6 6 -1
11 2 17 5 13 3 -3 4 -12 1 -19z m-2590 -55 c-3 -10 -5 -2 -5 17 0 19 2 27 5
18 2 -10 2 -26 0 -35z m-1064 -686 c87 -41 132 -98 90 -114 -44 -17 -241 55
-263 97 -30 56 68 66 173 17z"/>
<path d="M5761 2584 c0 -11 3 -14 6 -6 3 7 2 16 -1 19 -3 4 -6 -2 -5 -13z"/>
<path d="M3232 2780 c0 -19 2 -27 5 -17 2 9 2 25 0 35 -3 9 -5 1 -5 -18z"/>
<path d="M3231 2694 c0 -11 3 -14 6 -6 3 7 2 16 -1 19 -3 4 -6 -2 -5 -13z"/>
<path d="M4556 2563 c-6 -14 -5 -15 5 -6 7 7 10 15 7 18 -3 3 -9 -2 -12 -12z"/>
<path d="M2416 2378 c5 -7 22 -32 39 -54 18 -23 55 -87 84 -143 l52 -101 54 0
c54 0 55 1 75 40 11 22 23 60 27 85 5 39 3 45 -12 45 -18 0 -85 -64 -85 -81 0
-22 -18 -6 -37 34 -27 54 -96 132 -144 163 -42 26 -65 31 -53 12z"/>
<path d="M1800 2221 c-42 -13 -84 -38 -104 -60 l-20 -21 -30 29 c-38 37 -75
51 -131 51 -24 0 -56 -5 -72 -11 -33 -12 -93 -67 -93 -85 0 -25 21 -25 41 0
25 32 89 66 124 66 44 0 91 -26 126 -69 l33 -42 42 45 c24 24 59 50 79 56 51
17 114 5 148 -27 18 -19 30 -24 37 -17 42 42 -103 110 -180 85z"/>
<path d="M5670 2145 c0 -15 4 -24 10 -20 6 3 10 12 10 20 0 8 -4 17 -10 20 -6
4 -10 -5 -10 -20z"/>
<path d="M2402 2109 c-74 -15 -66 -37 21 -64 45 -13 51 -13 93 7 l44 22 -27
15 c-39 20 -92 28 -131 20z"/>
<path d="M5627 2100 c-6 -22 17 -48 28 -30 3 5 0 10 -8 10 -10 0 -13 7 -10 20
3 11 3 20 0 20 -2 0 -7 -9 -10 -20z"/>
<path d="M1680 1933 c-8 -3 -27 -19 -42 -35 -16 -16 -32 -27 -37 -24 -5 4 -21
2 -35 -4 -40 -15 -35 -54 13 -101 23 -23 48 -39 62 -39 15 0 34 -13 52 -35 32
-40 81 -54 128 -35 37 16 64 67 55 104 -8 31 -43 66 -67 66 -30 0 -30 -16 1
-39 50 -37 32 -101 -28 -101 -53 0 -91 47 -62 76 6 6 11 41 13 78 2 59 -1 70
-18 81 -11 7 -27 10 -35 8z"/>
<path d="M2738 1884 c-23 -12 -68 -70 -68 -88 0 -15 29 -4 35 14 3 11 22 33
41 49 39 32 34 47 -8 25z"/>
<path d="M2515 1880 c-3 -6 5 -14 18 -19 13 -5 36 -24 51 -41 15 -18 30 -30
33 -26 12 12 -17 56 -49 76 -38 23 -44 24 -53 10z"/>
<path d="M2618 1729 c-21 -12 -22 -28 -6 -64 25 -55 98 -35 98 27 0 40 -52 61
-92 37z"/>
<path d="M2821 1695 c-32 -88 -71 -115 -161 -115 -75 1 -120 25 -145 77 -20
42 -35 55 -35 29 0 -19 41 -76 71 -98 31 -24 92 -33 154 -24 55 9 109 52 125
102 14 43 6 70 -9 29z"/>
</g>
</svg>
