M48
;Layer_Color=9474304
;FILE_FORMAT=2:5
INCH,LZ
;TYPE=PLATED
T2F00S00C0.02756
T3F00S00C0.03000
T4F00S00C0.03937
T5F00S00C0.04213
T6F00S00C0.04724
T7F00S00C0.05906
T8F00S00C0.15748
%
T02
X01865Y00515
X0341917Y01805
X0351917
X01865Y00615
X03315Y0302
Y0312
X0469Y0316
Y0306
T03
X0293Y01675
Y02075
X0106Y0102
Y0062
X0248Y0261
X0288
T04
X0271Y01596
X02709Y01696
X01535Y01269
X01536Y01169
X02481Y02829
X0248Y02929
T05
X02245Y00515
X0341917Y0048842
X0351917
X0361917
X0371917
X0381917
X0391917
X0401917
X0411917
X0421917
X0431917
X0441917
X0451917
X0461917
X0471917
X0481917
X0491917
X0501917
X0511917
Y0148843
X0501917
X0491917
X0481917
X0471917
X0461917
X0451917
X0441917
X0431917
X0421917
X0411917
X0401917
X0391917
X0381917
X042Y00965
X0371917Y0148843
X0361917
X0351917
X0341917
X022774Y0160067
X02245Y01015
Y00915
Y00815
Y00715
Y00615
X007026Y0160067
Y0230933
X006976Y0266067
Y0336933
X022724
X0246Y0336966
X0256
X0246Y03205
Y03105
X022724Y0266067
X022774Y0230933
X0266Y0229
Y0219
X02915Y0228933
X03015
X03525Y0272
Y0282
Y0292
Y0302
Y0312
Y0322
X0438996Y0311528
Y0301528
Y0291528
Y0281528
Y0272
Y0262
X04935Y0266
Y0256
Y0246
Y0276
Y0286
Y0296
Y0306
Y0316
X05835
Y0306
Y0296
Y0286
Y0276
Y0266
Y0256
Y0246
T06
X01465Y0051657
Y0071342
X0296Y0292657
Y0312343
T07
X05085Y00695
X00295Y01395
Y01595
T08
X0019685Y0019685
X0597315
X0019685Y0354685
X0597315Y035487
M30
